<svg width="193" height="295" viewBox="0 0 193 295" fill="none" xmlns="http://www.w3.org/2000/svg">
<path fill-rule="evenodd" clip-rule="evenodd" d="M101.563 31.5756C99.3455 26.9125 98.4031 21.6733 100.166 16.5579C105.245 1.81901 125.269 10.7264 127.305 19.3977C129.341 28.069 123.705 47.1705 118.085 47.117C115.844 47.0956 111.733 44.5752 107.922 40.6176L105.366 61.5661L88.5204 57.0523L101.563 31.5756Z" fill="#B28B67"/>
<path fill-rule="evenodd" clip-rule="evenodd" d="M124.848 13.3812C124.524 13.0475 123.847 12.3454 123.485 12.0598C123.4 11.9915 122.852 11.3265 122.832 11.3277C122.272 11.3633 120.616 11.6043 120.34 12.1223C120.309 12.1589 120.279 12.193 120.251 12.2222C119.938 12.5485 119.64 12.889 119.349 13.2366C118.711 13.9997 118.118 14.8169 117.543 15.6312C116.422 17.2171 115.375 18.8668 114.373 20.5327C113.353 22.2287 112.406 23.9674 111.41 25.678C109.977 28.1394 108.359 30.4816 106.931 32.9432C106.019 34.515 105.305 36.1612 104.958 37.9374C104.954 37.9587 104.949 37.9796 104.945 38.0014C104.944 38.0103 104.942 38.0192 104.941 38.0281C104.889 38.3017 104.846 38.5783 104.813 38.8582C104.785 39.0978 104.757 39.3383 104.732 39.5793C105.737 38.449 106.622 37.144 107.519 35.9205C107.606 35.8007 107.692 35.6793 107.776 35.5572C108.022 35.3261 108.27 35.0978 108.52 34.8711C110.095 33.4418 111.673 32.0199 113.211 30.5471C115.977 27.8981 118.743 25.1774 121.796 22.8822C122.697 22.2045 123.611 21.544 124.506 20.857C125.015 20.466 125.516 20.0642 126.009 19.6503C126.36 19.3543 127.806 18.3813 127.61 17.5114C127.51 17.0664 125.689 14.2469 124.848 13.3812Z" fill="#2C2C2C"/>
<path fill-rule="evenodd" clip-rule="evenodd" d="M123.591 12.156C123.932 12.3827 123.959 11.5529 123.669 11.1807C122.326 9.45656 116.013 7.26972 110.099 6.93158C106.137 6.70506 101.253 7.47455 97.5879 9.16408C94.2837 10.6872 91.4601 13.7916 89.5708 17.0157C87.587 20.4011 86.4139 24.1704 85.9694 28.0679C85.8718 28.924 85.9258 29.7793 85.8571 30.6245C85.7798 31.5762 85.6307 32.4726 85.6897 33.4345C85.7259 34.0235 85.8914 34.6357 85.9002 35.2206C85.9103 35.888 85.6491 36.433 85.3515 37.0294C84.8666 38.0014 84.3319 38.9579 83.6997 39.8409C82.7504 41.167 81.7077 42.3678 80.876 43.785C79.7693 45.6706 75.6469 51.6673 76.8783 53.9328L109.53 62.6819C109.309 60.2188 107.548 56.918 107.692 54.3832C107.777 52.8901 108.464 49.7639 108.464 49.6434C109.087 44.374 108.299 41.5668 107.635 40.4466C106.971 39.3265 105.844 38.735 105.987 37.9559C106.577 34.7339 108.641 32.0482 110.349 29.3513C112.385 26.1371 114.151 22.7574 116.218 19.5641C117.133 18.1501 121.818 10.9792 123.591 12.156Z" fill="#8991DC"/>
<path fill-rule="evenodd" clip-rule="evenodd" d="M111.17 12.7165C108.892 16.2934 108.069 18.3079 106.903 23.717L106.299 23.5551C106.521 18.2152 108.796 13.742 110.411 12.5131L111.17 12.7165ZM91.95 18.3728C92.7527 24.5553 92.9179 28.1234 98.1182 34.3457L97.5306 34.5596C92.1357 29.2502 91.4355 24.4538 91.4052 18.4755L91.95 18.3728ZM102.896 15.2331C101.82 23.415 100.915 28.0106 104.028 38.1098L103.403 38.1316C99.8324 29.1078 100.593 22.7272 102.345 15.132L102.896 15.2331ZM90.6086 37.101L91.2638 36.6327C97.4413 40.5518 95.5217 44.7113 102.832 51.4034L102.007 51.6433C95.3921 46.5812 95.4175 39.5323 90.6086 37.101Z" fill="black" fill-opacity="0.2"/>
<path fill-rule="evenodd" clip-rule="evenodd" d="M67.2455 121.282C68.5558 139.165 152.966 191.815 153.458 193.292C153.677 193.949 144.919 214.703 127.185 255.555L134.563 258.422C161.765 215.157 174.668 191.22 173.271 186.61C171.27 180.009 149.439 158.297 107.778 121.472L67.2455 121.282Z" fill="#B28B67"/>
<path fill-rule="evenodd" clip-rule="evenodd" d="M129.127 246.329L141.174 250.714C166.577 222.053 176.534 198.404 174.718 186.355C173.508 178.322 151.752 156.645 109.451 121.325L66.3821 121.325C67.8517 162.74 146.089 193.45 147.136 195.215C148.182 196.98 137.884 214.265 129.127 246.329Z" fill="#2F3676"/>
<path fill-rule="evenodd" clip-rule="evenodd" d="M124.47 254.147C122.964 255.908 122.027 257.295 121.658 258.307C121.21 259.538 120.761 261.41 120.312 263.922C121.74 264.442 134.578 269.114 158.826 277.94C161.031 274.995 161.103 272.999 159.043 271.95C156.983 270.901 155.278 270.011 153.929 269.279L138.933 254.784C138.644 254.505 138.184 254.513 137.905 254.801C137.9 254.806 137.896 254.811 137.891 254.816L135.725 257.189C133.389 257.393 131.598 257.269 130.35 256.814C129.336 256.445 128.084 255.526 126.596 254.057L126.596 254.057C126.025 253.493 125.104 253.499 124.541 254.07C124.516 254.095 124.493 254.12 124.47 254.147Z" fill="#E4E4E4"/>
<path fill-rule="evenodd" clip-rule="evenodd" d="M76.9515 121.282L39.349 211.554L2.3916 287.872H11.111L106.508 121.282H76.9515Z" fill="#997659"/>
<path fill-rule="evenodd" clip-rule="evenodd" d="M1.86985 284.349C1.05688 286.519 0.650391 288.143 0.650391 289.22C0.650391 290.531 0.868694 292.443 1.3053 294.957C2.82546 294.957 16.4874 294.957 42.2911 294.957C43.3561 291.436 42.7413 289.535 40.4466 289.254C38.1519 288.973 36.2456 288.72 34.7278 288.494L15.678 280.001C15.3115 279.838 14.8818 280.002 14.7184 280.369C14.7156 280.375 14.7129 280.381 14.7103 280.388L13.4858 283.358C11.3615 284.349 9.63527 284.845 8.30713 284.845C7.22805 284.845 5.73783 284.409 3.83648 283.537L3.83648 283.537C3.10683 283.203 2.24417 283.523 1.90969 284.253C1.89527 284.284 1.88198 284.316 1.86985 284.349Z" fill="#E4E4E4"/>
<path fill-rule="evenodd" clip-rule="evenodd" d="M5.72852 272.018L25.1032 275.651C40.0837 253.627 102.778 163.321 109.651 121.282H66.5189C43.5638 151.672 20.008 249.629 5.72852 272.018Z" fill="#5C63AB"/>
<path fill-rule="evenodd" clip-rule="evenodd" d="M139.286 118.137L156.071 141.488C161.526 145.044 165.869 148.675 169.101 152.38C169.768 153.551 170.345 155.672 166.513 154.093C162.681 152.513 158.58 151.025 157.602 152.189C156.624 153.353 158.482 155.729 156.798 157.181C155.675 158.15 153.205 154.005 149.388 144.746L130.499 128.6L139.286 118.137ZM48.8128 105.06L63.7574 107.756C49.2673 135.937 41.4935 150.874 40.4359 152.568C38.0563 156.38 40.4585 163.248 41.3648 166.871C36.099 168.194 38.0452 160.198 31.3833 161.977C25.3026 163.6 20.1925 167.584 14.4062 162.433C13.6948 161.799 13.147 159.791 15.516 158.714C21.4181 156.032 30.1202 151.051 31.5122 149.152C33.4104 146.562 39.1773 131.865 48.8128 105.06Z" fill="#B28B67"/>
<path fill-rule="evenodd" clip-rule="evenodd" d="M102.377 49.8014L108.753 49.8312C114.714 78.3244 129.051 105.787 151.763 132.219L127.405 153.054C106.321 117.403 95.5932 82.5647 102.377 49.8014Z" fill="#191847"/>
<path fill-rule="evenodd" clip-rule="evenodd" d="M61.689 122.811L116.793 132.528C109.5 99.2361 107.766 71.742 111.592 50.0454L95.4065 44.6379C78.6385 63.3443 70.3882 88.5613 61.689 122.811Z" fill="#DDE3E9"/>
<path fill-rule="evenodd" clip-rule="evenodd" d="M95.0519 44.5876C95.0548 44.5841 95.0576 44.5806 95.0605 44.577L96.1455 44.7683C97.436 45.042 99.3993 45.4712 102.035 46.0561L104.028 58.2425C101.985 72.312 99.4934 100.952 96.5525 144.164L60.4308 137.795C60.009 140.74 59.6438 143.725 59.3353 146.747L32.4771 142.011C44.4867 97.3939 65.3412 64.9147 95.0407 44.5735L95.0519 44.5876L95.0519 44.5876Z" fill="#2F3676"/>
<path fill-rule="evenodd" clip-rule="evenodd" d="M69.4252 100.735C67.2336 119.176 67.588 132.217 70.4883 139.859L60.39 138.078C62.2643 124.863 65.276 112.416 69.4252 100.735L69.4252 100.735Z" fill="black" fill-opacity="0.1"/>
<path fill-rule="evenodd" clip-rule="evenodd" d="M72.3329 117.309L91.6045 112.17L90.1444 120.45L72.3329 117.309Z" fill="white" fill-opacity="0.2"/>
</svg>
