<svg width="206" height="294" viewBox="0 0 206 294" fill="none" xmlns="http://www.w3.org/2000/svg">
<path fill-rule="evenodd" clip-rule="evenodd" d="M131.218 13.477C133.758 22.8364 137.068 43.8744 133.69 47.1744H112.322C112.32 47.1365 112.317 47.0987 112.315 47.061C104.395 46.1845 98.2354 39.4695 98.2354 31.3158V15.8421C98.2354 7.09275 105.328 0 114.077 0H115.551C123.497 0 130.076 5.84945 131.218 13.477Z" fill="#191847"/>
<path fill-rule="evenodd" clip-rule="evenodd" d="M106.533 28.3612C103.138 24.3758 100.84 19.4916 101.224 14.0188C102.33 -1.75 124.281 1.71893 128.551 9.67765C132.821 17.6364 132.313 37.8243 126.795 39.2468C124.594 39.814 119.906 38.4245 115.135 35.5485L118.13 56.7369H100.445L106.533 28.3612Z" fill="#D4A181"/>
<path fill-rule="evenodd" clip-rule="evenodd" d="M111.314 25.6972C112.128 34.4494 111.802 44.4443 109.374 46.8168H88.0054C86.8148 26.131 98.3211 34.1414 98.3211 14.6652C99.0385 13.9643 99.7164 13.2705 100.387 12.6722L100.363 12.0994C104.064 4.52436 108.758 0.736816 114.446 0.736816C122.979 0.736816 125.672 4.70716 127.965 8.07804C126.251 13.9618 119.596 14.8342 113.683 18.5017C112.986 17.9355 112.097 17.5961 111.129 17.5961C108.891 17.5961 107.077 19.4105 107.077 21.6487C107.077 23.8869 108.891 25.7013 111.129 25.7013C111.191 25.7013 111.253 25.6999 111.314 25.6972Z" fill="#191847"/>
<path fill-rule="evenodd" clip-rule="evenodd" d="M72.0088 190.17C89.6852 195.114 104.936 197.586 117.761 197.586C130.586 197.586 142.498 193.779 153.498 186.166C136.2 181.091 121.954 178.554 110.761 178.554C99.5676 178.554 86.6502 182.426 72.0088 190.17Z" fill="#1F28CF"/>
<path fill-rule="evenodd" clip-rule="evenodd" d="M133.063 204.713C132.893 204.456 132.749 204.178 132.635 203.876C130.272 197.627 92.4266 130.219 88.6562 117.895H131.265C134.132 127.265 147.034 186.067 148.85 197.799C154.579 216.305 166.375 276.239 167.881 280.391C169.465 284.759 160.552 289.309 158.176 283.939C154.397 275.395 145.392 251.753 141.383 237.318C137.624 223.785 134.563 211.61 133.063 204.713Z" fill="#BA8B72"/>
<path fill-rule="evenodd" clip-rule="evenodd" d="M98.2033 212.943C80.9009 217.316 17.6126 225.221 13.2695 226.461C8.80179 227.737 4.88446 218.528 10.4068 216.533C19.1938 213.359 43.4059 206.025 58.0857 203.032C69.8933 200.625 80.6679 198.661 87.9017 197.511C87.2889 177.191 84.4875 128.427 86.3236 117.895H124.024C122.264 127.994 107.379 201.687 104.613 209.063C103.735 211.697 101.115 212.86 98.2033 212.943Z" fill="#D4A181"/>
<path fill-rule="evenodd" clip-rule="evenodd" d="M10.8081 214.081C8.49784 213.652 6.80475 213.532 5.72885 213.721C4.4203 213.952 2.54924 214.507 0.115663 215.385C0.383329 216.903 2.78889 230.546 7.33235 256.313C11.036 256.757 12.826 255.808 12.7023 253.467C12.5786 251.126 12.4961 249.178 12.4548 247.623L17.581 227.104C17.6797 226.71 17.4396 226.31 17.0448 226.211C17.038 226.209 17.0312 226.208 17.0244 226.206L13.8427 225.506C12.4789 223.56 11.68 221.923 11.4462 220.597C11.2562 219.519 11.429 217.955 11.9646 215.902L11.9646 215.902C12.1701 215.115 11.6983 214.31 10.9108 214.104C10.8769 214.095 10.8426 214.088 10.8081 214.081Z" fill="#E4E4E4"/>
<path fill-rule="evenodd" clip-rule="evenodd" d="M155.472 283.244C154.648 285.444 154.235 287.091 154.235 288.183C154.235 289.512 154.457 291.451 154.899 294C156.441 294 170.294 294 196.459 294C197.539 290.43 196.915 288.502 194.588 288.217C192.262 287.933 190.329 287.676 188.79 287.446L169.473 278.835C169.102 278.669 168.666 278.836 168.5 279.208C168.497 279.214 168.495 279.221 168.492 279.227L167.25 282.239C165.096 283.244 163.346 283.747 161.999 283.747C160.905 283.747 159.394 283.305 157.466 282.421L157.466 282.421C156.726 282.082 155.851 282.407 155.512 283.146C155.498 283.178 155.484 283.211 155.472 283.244Z" fill="#E4E4E4"/>
<path fill-rule="evenodd" clip-rule="evenodd" d="M86.4456 117.895C103.059 113.142 118.778 113.142 133.604 117.895C138.761 141.428 151.294 150.768 153.498 186.848C128.446 199.296 97.4983 177.97 71.7088 190.109C64.3404 173.129 74.6562 132.237 86.4456 117.895Z" fill="#2B44FF"/>
<path fill-rule="evenodd" clip-rule="evenodd" d="M157.919 88.65L187.011 84.6817C192.831 81.4446 198.185 79.2532 203.073 78.1074C204.448 78.0672 206.637 78.5673 203.377 81.2848C200.117 84.0024 196.809 87.0086 197.39 88.459C197.971 89.9093 201.003 89.3697 201.505 91.6004C201.84 93.0875 196.92 93.3292 186.745 92.3253L163.138 101.684L157.919 88.65ZM66.528 95.3839L82.663 95.4445C64.9706 135.259 55.7455 156.105 54.9877 157.983C53.2827 162.208 56.8907 168.644 58.4337 172.102C53.4084 174.351 53.9438 166.023 47.6046 168.972C41.8184 171.664 37.4168 176.542 30.7317 172.417C29.9098 171.91 29.0091 170 31.1853 168.508C36.6068 164.791 44.4195 158.284 45.4751 156.143C46.9146 153.222 53.9323 132.969 66.528 95.3839Z" fill="#D4A181"/>
<path fill-rule="evenodd" clip-rule="evenodd" d="M110.723 44.2105L123.356 45.052C126.468 73.2003 143.415 90.9799 181.358 84.9608L186.399 121.209C150.935 125.793 119.833 111.595 113.459 73.1525C111.809 63.201 110.506 52.8446 110.723 44.2105Z" fill="#AFB9C5"/>
<path fill-rule="evenodd" clip-rule="evenodd" d="M104.491 40.538L123.632 44.9217C123.632 77.8432 134.119 98.8476 139.498 123.053H87.8036C87.0754 131.416 86.6283 140.013 86.3952 148.842H47.6885C56.4596 102.173 74.9726 66.0681 103.227 40.5262H104.481L104.491 40.538Z" fill="#C5CFD6"/>
<path fill-rule="evenodd" clip-rule="evenodd" d="M95.9587 76.0857C94.6265 96.6003 95.41 112.256 98.3092 123.053H87.8027C89.2453 106.484 91.7907 90.8282 95.9587 76.0857V76.0857Z" fill="black" fill-opacity="0.1"/>
</svg>
