<svg width="147" height="47" viewBox="0 0 147 47" fill="none" xmlns="http://www.w3.org/2000/svg">
<path d="M14.2839 21.3285C15.1061 18.2603 18.26 15.1064 21.3283 14.2841L40.4573 9.15774C43.5255 8.33548 45.3463 10.1562 44.524 13.2245L39.3977 32.3535C38.5754 35.4217 35.4215 38.5756 32.3532 39.3979L13.2242 44.5243C10.156 45.3465 8.33523 43.5258 9.1575 40.4575L14.2839 21.3285Z" fill="#9E77ED"/>
<path d="M6.61516 13.6597C7.43743 10.5914 10.5913 7.43749 13.6596 6.61522L32.7886 1.48885C35.8569 0.66659 37.6776 2.48734 36.8553 5.55561L31.729 24.6846C30.9067 27.7529 27.7528 30.9068 24.6845 31.729L5.55555 36.8554C2.48728 37.6777 0.666531 35.8569 1.4888 32.7886L6.61516 13.6597Z" fill="#6941C6"/>
<path d="M62.2984 30.4343H68.8784V33.0103H59.1064V13.5503H62.2984V30.4343Z" fill="white"/>
<path d="M70.4838 25.2263C70.4838 23.677 70.8012 22.305 71.4358 21.1103C72.0892 19.9156 72.9665 18.9916 74.0678 18.3383C75.1878 17.6663 76.4198 17.3303 77.7638 17.3303C78.9772 17.3303 80.0318 17.573 80.9278 18.0583C81.8425 18.525 82.5705 19.113 83.1118 19.8223V17.5823H86.3318V33.0103H83.1118V30.7143C82.5705 31.4423 81.8332 32.049 80.8998 32.5343C79.9665 33.0196 78.9025 33.2623 77.7078 33.2623C76.3825 33.2623 75.1692 32.9263 74.0678 32.2543C72.9665 31.5636 72.0892 30.6116 71.4358 29.3983C70.8012 28.1663 70.4838 26.7756 70.4838 25.2263ZM83.1118 25.2823C83.1118 24.2183 82.8878 23.2943 82.4398 22.5103C82.0105 21.7263 81.4412 21.129 80.7318 20.7183C80.0225 20.3076 79.2572 20.1023 78.4358 20.1023C77.6145 20.1023 76.8492 20.3076 76.1398 20.7183C75.4305 21.1103 74.8518 21.6983 74.4038 22.4823C73.9745 23.2476 73.7598 24.1623 73.7598 25.2263C73.7598 26.2903 73.9745 27.2236 74.4038 28.0263C74.8518 28.829 75.4305 29.445 76.1398 29.8743C76.8678 30.285 77.6332 30.4903 78.4358 30.4903C79.2572 30.4903 80.0225 30.285 80.7318 29.8743C81.4412 29.4636 82.0105 28.8663 82.4398 28.0823C82.8878 27.2796 83.1118 26.3463 83.1118 25.2823Z" fill="white"/>
<path d="M104.412 17.5823L94.9484 40.2623H91.6444L94.7804 32.7583L88.7044 17.5823H92.2604L96.6004 29.3423L101.108 17.5823H104.412Z" fill="white"/>
<path d="M120.961 24.9183C120.961 25.497 120.924 26.0196 120.849 26.4863H109.061C109.155 27.7183 109.612 28.7076 110.433 29.4543C111.255 30.201 112.263 30.5743 113.457 30.5743C115.175 30.5743 116.388 29.8556 117.097 28.4183H120.541C120.075 29.837 119.225 31.0036 117.993 31.9183C116.78 32.8143 115.268 33.2623 113.457 33.2623C111.983 33.2623 110.657 32.9356 109.481 32.2823C108.324 31.6103 107.409 30.677 106.737 29.4823C106.084 28.269 105.757 26.869 105.757 25.2823C105.757 23.6956 106.075 22.305 106.709 21.1103C107.363 19.897 108.268 18.9636 109.425 18.3103C110.601 17.657 111.945 17.3303 113.457 17.3303C114.913 17.3303 116.211 17.6476 117.349 18.2823C118.488 18.917 119.375 19.813 120.009 20.9703C120.644 22.109 120.961 23.425 120.961 24.9183ZM117.629 23.9103C117.611 22.7343 117.191 21.7916 116.369 21.0823C115.548 20.373 114.531 20.0183 113.317 20.0183C112.216 20.0183 111.273 20.373 110.489 21.0823C109.705 21.773 109.239 22.7156 109.089 23.9103H117.629Z" fill="white"/>
<path d="M127.295 19.8223C127.761 19.0383 128.377 18.4316 129.143 18.0023C129.927 17.5543 130.851 17.3303 131.915 17.3303V20.6343H131.103C129.852 20.6343 128.9 20.9516 128.247 21.5863C127.612 22.221 127.295 23.3223 127.295 24.8903V33.0103H124.103V17.5823H127.295V19.8223Z" fill="white"/>
<path d="M140.449 33.2623C139.235 33.2623 138.143 33.0476 137.173 32.6183C136.221 32.1703 135.465 31.573 134.905 30.8263C134.345 30.061 134.046 29.2116 134.009 28.2783H137.313C137.369 28.9316 137.677 29.4823 138.237 29.9303C138.815 30.3596 139.534 30.5743 140.393 30.5743C141.289 30.5743 141.979 30.4063 142.465 30.0703C142.969 29.7156 143.221 29.2676 143.221 28.7263C143.221 28.1476 142.941 27.7183 142.381 27.4383C141.839 27.1583 140.971 26.8503 139.777 26.5143C138.619 26.197 137.677 25.889 136.949 25.5903C136.221 25.2916 135.586 24.8343 135.045 24.2183C134.522 23.6023 134.261 22.7903 134.261 21.7823C134.261 20.961 134.503 20.2143 134.989 19.5423C135.474 18.8516 136.165 18.3103 137.061 17.9183C137.975 17.5263 139.021 17.3303 140.197 17.3303C141.951 17.3303 143.361 17.7783 144.425 18.6743C145.507 19.5516 146.086 20.7556 146.161 22.2863H142.969C142.913 21.5956 142.633 21.045 142.129 20.6343C141.625 20.2236 140.943 20.0183 140.085 20.0183C139.245 20.0183 138.601 20.177 138.153 20.4943C137.705 20.8116 137.481 21.2316 137.481 21.7543C137.481 22.165 137.63 22.5103 137.929 22.7903C138.227 23.0703 138.591 23.2943 139.021 23.4623C139.45 23.6116 140.085 23.8076 140.925 24.0503C142.045 24.349 142.959 24.657 143.669 24.9743C144.397 25.273 145.022 25.721 145.545 26.3183C146.067 26.9156 146.338 27.709 146.357 28.6983C146.357 29.5756 146.114 30.3596 145.629 31.0503C145.143 31.741 144.453 32.2823 143.557 32.6743C142.679 33.0663 141.643 33.2623 140.449 33.2623Z" fill="white"/>
</svg>
