<svg width="183" height="48" viewBox="0 0 183 48" fill="none" xmlns="http://www.w3.org/2000/svg">
<path d="M15.7144 33.4286C24.3931 33.4286 31.4287 26.393 31.4287 17.7143C31.4287 16.7307 31.3383 15.7682 31.1654 14.8347C30.2319 14.6618 29.2694 14.5714 28.2858 14.5714C19.6071 14.5714 12.5715 21.6069 12.5715 30.2857C12.5715 31.2693 12.6619 32.2318 12.8348 33.1653C13.7683 33.3382 14.7308 33.4286 15.7144 33.4286Z" fill="#B692F6"/>
<path fill-rule="evenodd" clip-rule="evenodd" d="M12.8347 33.1653C5.53118 31.8127 0 25.4095 0 17.7143C0 9.03553 7.03553 2 15.7143 2C23.4095 2 29.8128 7.53118 31.1653 14.8347C30.2318 14.6618 29.2693 14.5714 28.2857 14.5714C19.607 14.5714 12.5714 21.607 12.5714 30.2857C12.5714 31.2693 12.6618 32.2318 12.8347 33.1653Z" fill="#B692F6"/>
<path fill-rule="evenodd" clip-rule="evenodd" d="M15.7143 33.4285C24.3931 33.4285 31.4286 26.393 31.4286 17.7142C31.4286 16.7306 31.3382 15.7681 31.1654 14.8346C38.4689 16.1872 44 22.5905 44 30.2856C44 38.9644 36.9645 45.9999 28.2858 45.9999C20.5906 45.9999 14.1873 40.4687 12.8347 33.1652C13.7682 33.3381 14.7307 33.4285 15.7143 33.4285Z" fill="#D6BBFB"/>
<path d="M74.2281 28.904C73.6681 30.7147 72.6881 32.068 71.2881 32.964C69.8881 33.8414 68.2548 34.28 66.3881 34.28C64.5588 34.28 62.9721 33.8974 61.6281 33.132C60.3028 32.3667 59.2761 31.2747 58.5481 29.856C57.8388 28.4374 57.4841 26.7387 57.4841 24.76C57.4841 22.7814 57.8481 21.0827 58.5761 19.664C59.3041 18.2454 60.3308 17.1534 61.6561 16.388C62.9815 15.6227 64.5401 15.24 66.3321 15.24C68.2175 15.24 69.8321 15.6414 71.1761 16.444C72.5388 17.228 73.4721 18.4227 73.9761 20.028L70.4761 21.512C70.1588 20.392 69.6735 19.5987 69.0201 19.132C68.3668 18.6467 67.5268 18.404 66.5001 18.404C64.9695 18.404 63.7468 18.9547 62.8321 20.056C61.9361 21.1387 61.4881 22.7067 61.4881 24.76C61.4881 26.7947 61.9175 28.3627 62.7761 29.464C63.6348 30.5654 64.8761 31.116 66.5001 31.116C67.5081 31.116 68.3761 30.8454 69.1041 30.304C69.8508 29.7627 70.3735 28.9414 70.6721 27.84L74.2281 28.904Z" fill="#FCFCFD"/>
<path d="M79.0614 17.984C77.4747 17.984 76.6814 17.3027 76.6814 15.94C76.6814 14.5587 77.4747 13.868 79.0614 13.868C80.6481 13.868 81.4414 14.5587 81.4414 15.94C81.4414 17.3027 80.6481 17.984 79.0614 17.984ZM80.9654 20V34H77.1294V20H80.9654Z" fill="#FCFCFD"/>
<path d="M85.0318 34V20H88.3637L88.6157 22.744C88.9704 21.792 89.5024 21.0547 90.2117 20.532C90.9397 19.9907 91.8544 19.72 92.9557 19.72C93.6091 19.72 94.1131 19.8227 94.4677 20.028L94.0197 23.248C93.8331 23.192 93.5997 23.1454 93.3197 23.108C93.0584 23.052 92.7131 23.024 92.2837 23.024C91.7051 23.024 91.1544 23.164 90.6317 23.444C90.1277 23.7054 89.7077 24.116 89.3717 24.676C89.0357 25.2174 88.8678 25.908 88.8678 26.748V34H85.0318Z" fill="#FCFCFD"/>
<path d="M102.927 19.72C104.793 19.72 106.24 20.1214 107.267 20.924C108.312 21.7267 109.003 22.6974 109.339 23.836L105.755 25.124C105.381 23.4254 104.457 22.576 102.983 22.576C101.919 22.576 101.088 22.9494 100.491 23.696C99.9121 24.4427 99.6228 25.5534 99.6228 27.028C99.6228 28.5214 99.9215 29.632 100.519 30.36C101.135 31.0694 101.965 31.424 103.011 31.424C104.635 31.424 105.605 30.5934 105.923 28.932L109.395 30.052C109.077 31.3027 108.368 32.32 107.267 33.104C106.184 33.888 104.775 34.28 103.039 34.28C101.583 34.28 100.304 33.9907 99.2028 33.412C98.1201 32.8334 97.2801 32.0027 96.6828 30.92C96.0855 29.8374 95.7868 28.5307 95.7868 27C95.7868 25.4694 96.0855 24.1627 96.6828 23.08C97.2988 21.9974 98.1388 21.1667 99.2028 20.588C100.285 20.0094 101.527 19.72 102.927 19.72Z" fill="#FCFCFD"/>
<path d="M118.759 19.72C120.159 19.72 121.401 20.0094 122.483 20.588C123.566 21.1667 124.406 21.9974 125.003 23.08C125.619 24.1627 125.927 25.4694 125.927 27C125.927 28.5307 125.619 29.8374 125.003 30.92C124.406 32.0027 123.566 32.8334 122.483 33.412C121.401 33.9907 120.159 34.28 118.759 34.28C117.341 34.28 116.09 33.9907 115.007 33.412C113.943 32.8334 113.103 32.0027 112.487 30.92C111.89 29.8374 111.591 28.5307 111.591 27C111.591 25.4694 111.89 24.1627 112.487 23.08C113.103 21.9974 113.943 21.1667 115.007 20.588C116.09 20.0094 117.341 19.72 118.759 19.72ZM118.759 22.576C117.714 22.576 116.893 22.9494 116.295 23.696C115.717 24.424 115.427 25.5254 115.427 27C115.427 28.4747 115.717 29.5854 116.295 30.332C116.893 31.06 117.714 31.424 118.759 31.424C119.786 31.424 120.589 31.06 121.167 30.332C121.765 29.5854 122.063 28.4747 122.063 27C122.063 25.5254 121.765 24.424 121.167 23.696C120.589 22.9494 119.786 22.576 118.759 22.576Z" fill="#FCFCFD"/>
<path d="M135.521 19.72C136.921 19.72 138.163 20.0094 139.245 20.588C140.328 21.1667 141.168 21.9974 141.765 23.08C142.381 24.1627 142.689 25.4694 142.689 27C142.689 28.5307 142.381 29.8374 141.765 30.92C141.168 32.0027 140.328 32.8334 139.245 33.412C138.163 33.9907 136.921 34.28 135.521 34.28C134.103 34.28 132.852 33.9907 131.769 33.412C130.705 32.8334 129.865 32.0027 129.249 30.92C128.652 29.8374 128.353 28.5307 128.353 27C128.353 25.4694 128.652 24.1627 129.249 23.08C129.865 21.9974 130.705 21.1667 131.769 20.588C132.852 20.0094 134.103 19.72 135.521 19.72ZM135.521 22.576C134.476 22.576 133.655 22.9494 133.057 23.696C132.479 24.424 132.189 25.5254 132.189 27C132.189 28.4747 132.479 29.5854 133.057 30.332C133.655 31.06 134.476 31.424 135.521 31.424C136.548 31.424 137.351 31.06 137.929 30.332C138.527 29.5854 138.825 28.4747 138.825 27C138.825 25.5254 138.527 24.424 137.929 23.696C137.351 22.9494 136.548 22.576 135.521 22.576Z" fill="#FCFCFD"/>
<path d="M149.679 13.868V29.688C149.679 30.3414 149.791 30.7987 150.015 31.06C150.239 31.3214 150.612 31.452 151.135 31.452C151.452 31.452 151.714 31.4334 151.919 31.396C152.124 31.3587 152.386 31.284 152.703 31.172L152.367 33.692C152.05 33.8787 151.648 34.0187 151.163 34.112C150.696 34.224 150.23 34.28 149.763 34.28C148.4 34.28 147.402 33.9534 146.767 33.3C146.151 32.628 145.843 31.564 145.843 30.108V13.868H149.679Z" fill="#FCFCFD"/>
<path d="M161.336 34.28C159.134 34.28 157.37 33.6454 156.044 32.376C154.719 31.088 154.056 29.296 154.056 27C154.056 25.4694 154.355 24.1627 154.952 23.08C155.55 21.9974 156.38 21.1667 157.444 20.588C158.527 20.0094 159.759 19.72 161.14 19.72C162.559 19.72 163.763 20.0094 164.752 20.588C165.742 21.148 166.498 21.9227 167.02 22.912C167.543 23.8827 167.804 24.9934 167.804 26.244C167.804 26.6174 167.795 26.972 167.776 27.308C167.758 27.644 167.73 27.9427 167.692 28.204H157.808C157.958 29.2867 158.331 30.0987 158.928 30.64C159.544 31.1627 160.338 31.424 161.308 31.424C162.13 31.424 162.792 31.2654 163.296 30.948C163.8 30.6307 164.192 30.192 164.472 29.632L167.524 30.808C167.076 31.9094 166.292 32.768 165.172 33.384C164.052 33.9814 162.774 34.28 161.336 34.28ZM161.112 22.548C159.302 22.548 158.21 23.5467 157.836 25.544H164.136C164.024 24.5734 163.707 23.836 163.184 23.332C162.68 22.8094 161.99 22.548 161.112 22.548Z" fill="#FCFCFD"/>
<path d="M176.655 34.28C175.236 34.28 173.939 34.028 172.763 33.524C171.606 33.02 170.663 32.3107 169.935 31.396L172.147 29.156C172.595 29.828 173.192 30.3787 173.939 30.808C174.686 31.2374 175.572 31.452 176.599 31.452C177.327 31.452 177.906 31.3494 178.335 31.144C178.783 30.92 179.007 30.5747 179.007 30.108C179.007 29.8094 178.904 29.5574 178.699 29.352C178.494 29.128 178.083 28.9507 177.467 28.82L175.003 28.316C173.379 27.98 172.222 27.476 171.531 26.804C170.859 26.1134 170.523 25.2267 170.523 24.144C170.523 23.3787 170.747 22.66 171.195 21.988C171.662 21.316 172.352 20.7747 173.267 20.364C174.182 19.9347 175.32 19.72 176.683 19.72C179.52 19.72 181.555 20.588 182.787 22.324L180.491 24.564C180.081 23.9107 179.539 23.416 178.867 23.08C178.214 22.7254 177.523 22.548 176.795 22.548C175.152 22.548 174.331 23.0054 174.331 23.92C174.331 24.2187 174.462 24.48 174.723 24.704C174.984 24.9094 175.46 25.0867 176.151 25.236L179.007 25.824C180.388 26.104 181.378 26.58 181.975 27.252C182.572 27.9054 182.871 28.6987 182.871 29.632C182.871 30.976 182.33 32.0867 181.247 32.964C180.183 33.8414 178.652 34.28 176.655 34.28Z" fill="#FCFCFD"/>
</svg>
