<svg width="160" height="44" viewBox="0 0 160 44" fill="none" xmlns="http://www.w3.org/2000/svg">
<path d="M22 0C9.84969 0 0 9.84974 0 22C0 34.1503 9.84969 44 22 44C32.901 44 41.9502 36.0716 43.6958 25.6667H43.5379C41.9098 31.9925 36.1674 36.6667 29.3333 36.6667C21.2332 36.6667 14.6667 30.1002 14.6667 22C14.6667 13.8998 21.2332 7.33333 29.3333 7.33333C36.1674 7.33333 41.9098 12.0075 43.5379 18.3333H43.6958C41.9502 7.92838 32.901 0 22 0Z" fill="#A4BCFD"/>
<path d="M0 22C0 9.84974 9.84974 0 22 0C32.901 0 41.9502 7.92838 43.6958 18.3333H28.8713C27.2431 12.0075 21.5007 7.33333 14.6667 7.33333C6.56649 7.33333 0 13.8998 0 22Z" fill="#3538CD"/>
<path d="M0 22C0 34.1503 9.84974 44 22 44C32.901 44 41.9502 36.0716 43.6958 25.6667H28.8713C27.2431 31.9925 21.5007 36.6667 14.6667 36.6667C6.56649 36.6667 0 30.1002 0 22Z" fill="#3538CD"/>
<path d="M75.4389 18.5071C74.8125 13.9829 71.3324 11.3579 66.8182 11.3579C61.4986 11.3579 57.4915 15.2358 57.4915 21.8181C57.4915 28.3906 61.4488 32.2784 66.8182 32.2784C71.6605 32.2784 74.8721 29.1463 75.4389 25.2585L71.7201 25.2386C71.2528 27.625 69.304 28.9673 66.8679 28.9673C63.5667 28.9673 61.2003 26.4914 61.2003 21.8181C61.2003 17.2244 63.5469 14.669 66.8778 14.669C69.3537 14.669 71.2926 16.071 71.7201 18.5071H75.4389Z" fill="white"/>
<path d="M83.0529 32.3082C85.4492 32.3082 86.881 31.1846 87.5373 29.9019H87.6566V32H91.1168V21.7784C91.1168 17.7414 87.8256 16.5284 84.9123 16.5284C81.7006 16.5284 79.2347 17.9602 78.4392 20.7443L81.8 21.2215C82.158 20.1775 83.1722 19.2826 84.9321 19.2826C86.6026 19.2826 87.5174 20.1377 87.5174 21.6392V21.6988C87.5174 22.7329 86.4336 22.7826 83.739 23.071C80.7759 23.3892 77.9421 24.2741 77.9421 27.7144C77.9421 30.7173 80.1395 32.3082 83.0529 32.3082ZM83.9875 29.6633C82.4861 29.6633 81.4123 28.9772 81.4123 27.6548C81.4123 26.2727 82.6154 25.696 84.2262 25.4673C85.1708 25.338 87.06 25.0994 87.5273 24.7215V26.5213C87.5273 28.2215 86.1552 29.6633 83.9875 29.6633Z" fill="white"/>
<path d="M102.363 16.7272H99.3498V13.0681H95.7503V16.7272H93.5827V19.5113H95.7503V28.0028C95.7304 30.8764 97.8185 32.2883 100.523 32.2088C101.547 32.1789 102.253 31.9801 102.641 31.8508L102.034 29.0369C101.836 29.0866 101.428 29.1761 100.98 29.1761C100.076 29.1761 99.3498 28.8579 99.3498 27.4062V19.5113H102.363V16.7272Z" fill="white"/>
<path d="M109.768 32.3082C112.164 32.3082 113.596 31.1846 114.252 29.9019H114.371V32H117.832V21.7784C117.832 17.7414 114.54 16.5284 111.627 16.5284C108.415 16.5284 105.95 17.9602 105.154 20.7443L108.515 21.2215C108.873 20.1775 109.887 19.2826 111.647 19.2826C113.317 19.2826 114.232 20.1377 114.232 21.6392V21.6988C114.232 22.7329 113.148 22.7826 110.454 23.071C107.491 23.3892 104.657 24.2741 104.657 27.7144C104.657 30.7173 106.854 32.3082 109.768 32.3082ZM110.702 29.6633C109.201 29.6633 108.127 28.9772 108.127 27.6548C108.127 26.2727 109.33 25.696 110.941 25.4673C111.886 25.338 113.775 25.0994 114.242 24.7215V26.5213C114.242 28.2215 112.87 29.6633 110.702 29.6633Z" fill="white"/>
<path d="M125.05 11.6363H121.451V32H125.05V11.6363Z" fill="white"/>
<path d="M135.414 32.2983C139.888 32.2983 142.732 29.1463 142.732 24.4233C142.732 19.6903 139.888 16.5284 135.414 16.5284C130.939 16.5284 128.095 19.6903 128.095 24.4233C128.095 29.1463 130.939 32.2983 135.414 32.2983ZM135.434 29.4147C132.958 29.4147 131.745 27.2073 131.745 24.4133C131.745 21.6193 132.958 19.3821 135.434 19.3821C137.87 19.3821 139.083 21.6193 139.083 24.4133C139.083 27.2073 137.87 29.4147 135.434 29.4147Z" fill="white"/>
<path d="M152.429 38.0454C156.555 38.0454 159.598 36.1562 159.598 32.2485V16.7272H156.048V19.2528H155.849C155.303 18.1491 154.159 16.5284 151.464 16.5284C147.935 16.5284 145.16 19.2926 145.16 24.3139C145.16 29.2954 147.935 31.7812 151.454 31.7812C154.07 31.7812 155.293 30.3792 155.849 29.2556H156.028V32.1491C156.028 34.3963 154.537 35.321 152.489 35.321C150.321 35.321 149.366 34.2968 148.929 33.4019L145.687 34.1875C146.344 36.3252 148.541 38.0454 152.429 38.0454ZM152.459 28.9573C150.082 28.9573 148.829 27.1079 148.829 24.294C148.829 21.5198 150.062 19.4815 152.459 19.4815C154.776 19.4815 156.048 21.4005 156.048 24.294C156.048 27.2073 154.756 28.9573 152.459 28.9573Z" fill="white"/>
</svg>
