<svg width="177" height="294" viewBox="0 0 177 294" fill="none" xmlns="http://www.w3.org/2000/svg">
<path fill-rule="evenodd" clip-rule="evenodd" d="M87.1658 27.0095C83.7533 23.0038 81.4436 18.0948 81.8295 12.5942C82.9416 -3.25485 105.004 0.231725 109.296 8.23094C113.587 16.2302 113.077 36.5208 107.531 37.9505C105.319 38.5207 100.607 37.124 95.8108 34.2334L98.8211 55.5296H81.0469L87.1658 27.0095Z" fill="#B28B67"/>
<path fill-rule="evenodd" clip-rule="evenodd" d="M96.6998 14.3445C97.3801 23.822 99.1799 28.5608 102.099 28.5608C106.478 28.5608 110.193 25.7808 112.115 25.7808C113.515 25.7808 113.203 27.5336 112.274 28.8331C111.508 29.9053 107.778 30.9387 107.778 32.601C107.778 34.2632 110.725 32.9772 110.725 33.963C110.725 35.5937 111.243 38.6597 108.413 38.6597C105.549 38.6597 97.3363 37.6159 95.9289 33.3648C95.0206 30.6213 94.4333 24.9362 94.1671 16.3095C93.9933 16.2889 93.8165 16.2783 93.6372 16.2783C91.1831 16.2783 89.1936 18.2677 89.1936 20.7218C89.1936 21.9677 89.7064 23.0938 90.5323 23.9006C89.5041 25.3519 88.3518 26.8679 87.0314 28.4323C82.0709 25.4562 78.39 16.7441 83.2397 8.37489C84.5801 4.27495 87.6147 2.08502 91.1987 1.06817C94.1019 -0.146245 97.1157 -0.283172 99.6597 0.444858C104.647 0.872618 109.1 2.39331 110.362 3.29641C110.362 8.01785 109.447 9.41868 101.633 9.29521C99.7132 10.3092 98.2372 12.0553 96.6998 14.3445Z" fill="#191847"/>
<path fill-rule="evenodd" clip-rule="evenodd" d="M75.123 116.999L101.973 211.222L121.563 280.669H135.852L115.034 116.999H75.123Z" fill="#191847"/>
<path fill-rule="evenodd" clip-rule="evenodd" d="M67.9423 116.999C67.3212 165.562 65.2035 192.05 64.5514 196.463C63.8994 200.875 54.0398 228.944 34.9727 280.669H49.7743C74.0482 231.047 87.5986 202.978 90.4253 196.463C93.252 189.947 101.976 163.459 115.115 116.999H67.9423Z" fill="#2F3676"/>
<path fill-rule="evenodd" clip-rule="evenodd" d="M33.6494 294L34.39 278.448H49.9424C57.3169 283.632 66.9446 287.828 78.8255 291.038V294H50.683L41.0553 292.519V294H33.6494Z" fill="#191847"/>
<path fill-rule="evenodd" clip-rule="evenodd" d="M119.559 294L120.299 278.448H135.852C143.226 283.632 152.854 287.828 164.735 291.038V294H136.592L126.965 292.519V294H119.559Z" fill="#191847"/>
<path fill-rule="evenodd" clip-rule="evenodd" d="M137.598 104.86L159.954 123.813C166.225 125.985 171.415 128.504 175.524 131.371C176.472 132.365 177.566 134.32 173.387 133.703C169.209 133.086 164.786 132.625 164.106 134.018C163.426 135.41 165.849 137.301 164.542 139.153C163.67 140.387 160.206 136.897 154.148 128.683L131.488 117.374L137.598 104.86ZM36.3653 96.6591L49.4825 98.564C35.4024 129.113 27.8538 145.269 26.8369 147.032C24.5489 150.999 27.2398 157.909 28.2917 161.567C22.9755 163.102 24.6733 154.888 17.9512 156.937C11.8156 158.807 6.75246 163.046 0.675717 158.005C-0.0713824 157.386 -0.700723 155.359 1.6739 154.179C7.58997 151.237 16.2761 145.854 17.6263 143.87C19.4676 141.165 25.714 125.428 36.3653 96.6591Z" fill="#B28B67"/>
<path fill-rule="evenodd" clip-rule="evenodd" d="M91.1902 43.1856L99.3182 40.4977C110.344 68.0404 126.787 94.6895 154.261 117.199L147.467 128.92C123.321 114.697 100.465 103.648 91.1902 82.3056C88.0774 75.1425 90.9363 51.7505 91.1902 43.1856Z" fill="#C5CFD6"/>
<path fill-rule="evenodd" clip-rule="evenodd" d="M63.2734 120.702C86.5564 123.17 104.883 123.17 118.252 120.702C119.909 120.396 120.17 117.623 119.402 115.74C107.44 86.4304 99.2368 60.8557 99.2368 40.4976C97.0419 41.6042 93.2006 41.77 87.7129 40.9951C72.965 61.9748 66.1858 86.0466 63.2734 120.702Z" fill="#323337"/>
<path fill-rule="evenodd" clip-rule="evenodd" d="M84.0462 39.2367H90.1923C91.6234 47.6534 96.1371 161.629 110.071 198.913H34.6753C36.3099 164.757 49.2039 123.729 62.2657 89.3957C50.7159 99.9648 40.6493 117.873 32.0659 143.121L17.9434 139.496C28.4439 94.2486 50.0331 60.9914 82.7108 39.7247C82.7815 39.5613 82.852 39.3986 82.9221 39.2367H83.466C83.6662 39.1082 83.8668 38.9801 84.0678 38.8525L84.0462 39.2367Z" fill="#DDE3E9"/>
</svg>
