<svg width="168" height="39" viewBox="0 0 168 39" fill="none" xmlns="http://www.w3.org/2000/svg">
<path d="M55.7433 13.3125V15H49.6964V13.3125H55.7433ZM50.3527 3.625V15H48.2042V3.625H50.3527ZM54.9542 8.32031V9.96875H49.6964V8.32031H54.9542ZM55.7198 3.625V5.32031H49.6964V3.625H55.7198ZM58.6964 6.54688L60.2042 9.23438L61.7355 6.54688H63.9777L61.4933 10.6875L64.0792 15H61.837L60.2198 12.1797L58.5948 15H56.3527L58.9308 10.6875L56.462 6.54688H58.6964ZM67.2355 8.17188V18.25H65.1652V6.54688H67.0792L67.2355 8.17188ZM72.6652 10.6875V10.8516C72.6652 11.4661 72.5922 12.0365 72.4464 12.5625C72.3058 13.0833 72.0975 13.5391 71.8214 13.9297C71.5454 14.3151 71.2016 14.6172 70.7902 14.8359C70.3839 15.0495 69.9152 15.1562 69.3839 15.1562C68.8631 15.1562 68.41 15.0573 68.0245 14.8594C67.6391 14.6562 67.3136 14.3698 67.048 14C66.7823 13.6302 66.5688 13.2005 66.4073 12.7109C66.2511 12.2161 66.1339 11.6771 66.0558 11.0938V10.5703C66.1339 9.95052 66.2511 9.38802 66.4073 8.88281C66.5688 8.3724 66.7823 7.93229 67.048 7.5625C67.3136 7.1875 67.6365 6.89844 68.0167 6.69531C68.4021 6.49219 68.8527 6.39062 69.3683 6.39062C69.9047 6.39062 70.3761 6.49219 70.7823 6.69531C71.1938 6.89844 71.5402 7.1901 71.8214 7.57031C72.1027 7.95052 72.3136 8.40365 72.4542 8.92969C72.5948 9.45573 72.6652 10.0417 72.6652 10.6875ZM70.5948 10.8516V10.6875C70.5948 10.3125 70.561 9.96615 70.4933 9.64844C70.4256 9.32552 70.3214 9.04427 70.1808 8.80469C70.0402 8.5599 69.8579 8.36979 69.6339 8.23438C69.41 8.09896 69.1391 8.03125 68.8214 8.03125C68.5037 8.03125 68.2303 8.08333 68.0011 8.1875C67.7719 8.29167 67.5844 8.4401 67.4386 8.63281C67.2928 8.82552 67.1782 9.05469 67.0948 9.32031C67.0167 9.58073 66.9646 9.86979 66.9386 10.1875V11.4844C66.9855 11.8698 67.0766 12.2161 67.212 12.5234C67.3475 12.8307 67.5454 13.0755 67.8058 13.2578C68.0714 13.4401 68.4152 13.5312 68.837 13.5312C69.1547 13.5312 69.4256 13.4609 69.6495 13.3203C69.8735 13.1797 70.0558 12.987 70.1964 12.7422C70.337 12.4922 70.4386 12.2057 70.5011 11.8828C70.5636 11.5599 70.5948 11.2161 70.5948 10.8516ZM77.9698 15.1562C77.3292 15.1562 76.7537 15.0521 76.2433 14.8438C75.7329 14.6354 75.298 14.3464 74.9386 13.9766C74.5844 13.6016 74.311 13.1667 74.1183 12.6719C73.9308 12.1719 73.837 11.6354 73.837 11.0625V10.75C73.837 10.099 73.9308 9.50781 74.1183 8.97656C74.3058 8.4401 74.5714 7.97917 74.9152 7.59375C75.2589 7.20833 75.6704 6.91146 76.1495 6.70312C76.6287 6.49479 77.1573 6.39062 77.7355 6.39062C78.3344 6.39062 78.8631 6.49219 79.3214 6.69531C79.7797 6.89323 80.1626 7.17448 80.4698 7.53906C80.7771 7.90365 81.0089 8.34115 81.1652 8.85156C81.3214 9.35677 81.3995 9.91667 81.3995 10.5312V11.3984H74.7745V9.97656H79.3683V9.82031C79.3579 9.49219 79.2954 9.19271 79.1808 8.92188C79.0662 8.64583 78.8891 8.42708 78.6495 8.26562C78.41 8.09896 78.1001 8.01562 77.7198 8.01562C77.4126 8.01562 77.1443 8.08333 76.9152 8.21875C76.6912 8.34896 76.5037 8.53646 76.3527 8.78125C76.2068 9.02083 76.0975 9.30729 76.0245 9.64062C75.9516 9.97396 75.9152 10.3438 75.9152 10.75V11.0625C75.9152 11.4167 75.962 11.7448 76.0558 12.0469C76.1547 12.349 76.298 12.612 76.4855 12.8359C76.6782 13.0547 76.9073 13.2266 77.173 13.3516C77.4438 13.4714 77.7511 13.5312 78.0948 13.5312C78.5271 13.5312 78.9178 13.4479 79.2667 13.2812C79.6209 13.1094 79.9282 12.8568 80.1886 12.5234L81.2277 13.6016C81.0506 13.862 80.811 14.112 80.5089 14.3516C80.212 14.5911 79.8527 14.7865 79.4308 14.9375C79.0089 15.0833 78.5219 15.1562 77.9698 15.1562ZM84.8448 8.27344V15H82.7823V6.54688H84.7355L84.8448 8.27344ZM87.4152 6.49219L87.3839 8.41406C87.2693 8.39323 87.1391 8.3776 86.9933 8.36719C86.8527 8.35677 86.7198 8.35156 86.5948 8.35156C86.2771 8.35156 85.9985 8.39583 85.7589 8.48438C85.5193 8.56771 85.3188 8.6901 85.1573 8.85156C85.0011 9.01302 84.8813 9.21094 84.798 9.44531C84.7146 9.67448 84.6678 9.9349 84.6573 10.2266L84.212 10.1719C84.212 9.63542 84.2667 9.13802 84.3761 8.67969C84.4855 8.22135 84.6443 7.82031 84.8527 7.47656C85.061 7.13281 85.3214 6.86719 85.6339 6.67969C85.9516 6.48698 86.3162 6.39062 86.7277 6.39062C86.8422 6.39062 86.9646 6.40104 87.0948 6.42188C87.2303 6.4375 87.337 6.46094 87.4152 6.49219ZM92.9386 6.54688V8.03125H88.0948V6.54688H92.9386ZM89.3917 4.46875H91.462V12.5625C91.462 12.8125 91.4959 13.0052 91.5636 13.1406C91.6313 13.276 91.7329 13.3672 91.8683 13.4141C92.0037 13.4609 92.1652 13.4844 92.3527 13.4844C92.4881 13.4844 92.6131 13.4766 92.7277 13.4609C92.8422 13.4453 92.9386 13.4297 93.0167 13.4141L93.0245 14.9609C92.8527 15.0182 92.6573 15.0651 92.4386 15.1016C92.2251 15.138 91.9829 15.1562 91.712 15.1562C91.2485 15.1562 90.8422 15.0781 90.4933 14.9219C90.1443 14.7604 89.8735 14.5026 89.6808 14.1484C89.4881 13.7891 89.3917 13.3151 89.3917 12.7266V4.46875ZM102.829 10.8516H99.8995V9.16406H102.829C103.308 9.16406 103.696 9.08594 103.993 8.92969C104.295 8.76823 104.517 8.54948 104.657 8.27344C104.798 7.99219 104.868 7.67188 104.868 7.3125C104.868 6.96354 104.798 6.63802 104.657 6.33594C104.517 6.03385 104.295 5.78906 103.993 5.60156C103.696 5.41406 103.308 5.32031 102.829 5.32031H100.603V15H98.4542V3.625H102.829C103.715 3.625 104.47 3.78385 105.095 4.10156C105.725 4.41406 106.204 4.84896 106.532 5.40625C106.866 5.95833 107.032 6.58854 107.032 7.29688C107.032 8.03125 106.866 8.66406 106.532 9.19531C106.204 9.72656 105.725 10.1354 105.095 10.4219C104.47 10.7083 103.715 10.8516 102.829 10.8516ZM110.626 8.27344V15H108.564V6.54688H110.517L110.626 8.27344ZM113.196 6.49219L113.165 8.41406C113.051 8.39323 112.92 8.3776 112.775 8.36719C112.634 8.35677 112.501 8.35156 112.376 8.35156C112.058 8.35156 111.78 8.39583 111.54 8.48438C111.301 8.56771 111.1 8.6901 110.939 8.85156C110.782 9.01302 110.663 9.21094 110.579 9.44531C110.496 9.67448 110.449 9.9349 110.439 10.2266L109.993 10.1719C109.993 9.63542 110.048 9.13802 110.157 8.67969C110.267 8.22135 110.426 7.82031 110.634 7.47656C110.842 7.13281 111.103 6.86719 111.415 6.67969C111.733 6.48698 112.097 6.39062 112.509 6.39062C112.623 6.39062 112.746 6.40104 112.876 6.42188C113.012 6.4375 113.118 6.46094 113.196 6.49219ZM113.743 10.8594V10.6953C113.743 10.0755 113.832 9.50521 114.009 8.98438C114.186 8.45833 114.444 8.0026 114.782 7.61719C115.121 7.23177 115.535 6.93229 116.025 6.71875C116.514 6.5 117.071 6.39062 117.696 6.39062C118.332 6.39062 118.894 6.5 119.384 6.71875C119.879 6.93229 120.295 7.23177 120.634 7.61719C120.972 8.0026 121.23 8.45833 121.407 8.98438C121.584 9.50521 121.673 10.0755 121.673 10.6953V10.8594C121.673 11.474 121.584 12.0443 121.407 12.5703C121.23 13.0911 120.972 13.5469 120.634 13.9375C120.295 14.3229 119.881 14.6224 119.392 14.8359C118.902 15.0495 118.342 15.1562 117.712 15.1562C117.087 15.1562 116.527 15.0495 116.032 14.8359C115.538 14.6224 115.121 14.3229 114.782 13.9375C114.444 13.5469 114.186 13.0911 114.009 12.5703C113.832 12.0443 113.743 11.474 113.743 10.8594ZM115.806 10.6953V10.8594C115.806 11.2292 115.842 11.5755 115.915 11.8984C115.988 12.2214 116.1 12.5052 116.251 12.75C116.402 12.9948 116.597 13.1875 116.837 13.3281C117.082 13.4635 117.373 13.5312 117.712 13.5312C118.045 13.5312 118.332 13.4635 118.571 13.3281C118.811 13.1875 119.006 12.9948 119.157 12.75C119.314 12.5052 119.428 12.2214 119.501 11.8984C119.574 11.5755 119.61 11.2292 119.61 10.8594V10.6953C119.61 10.3307 119.574 9.98958 119.501 9.67188C119.428 9.34896 119.314 9.0651 119.157 8.82031C119.006 8.57031 118.808 8.375 118.564 8.23438C118.324 8.08854 118.035 8.01562 117.696 8.01562C117.363 8.01562 117.077 8.08854 116.837 8.23438C116.597 8.375 116.402 8.57031 116.251 8.82031C116.1 9.0651 115.988 9.34896 115.915 9.67188C115.842 9.98958 115.806 10.3307 115.806 10.6953ZM128.548 6.54688H130.423V14.7422C130.423 15.5078 130.256 16.1562 129.923 16.6875C129.595 17.224 129.134 17.6302 128.54 17.9062C127.946 18.1875 127.256 18.3281 126.47 18.3281C126.131 18.3281 125.764 18.2812 125.368 18.1875C124.978 18.0938 124.6 17.9453 124.235 17.7422C123.876 17.5443 123.577 17.2865 123.337 16.9688L124.267 15.75C124.548 16.0781 124.866 16.3255 125.22 16.4922C125.574 16.6641 125.957 16.75 126.368 16.75C126.785 16.75 127.139 16.6719 127.431 16.5156C127.728 16.3646 127.954 16.1406 128.11 15.8438C128.272 15.5521 128.353 15.1927 128.353 14.7656V8.47656L128.548 6.54688ZM122.837 10.875V10.7109C122.837 10.0651 122.915 9.47917 123.071 8.95312C123.228 8.42188 123.452 7.96615 123.743 7.58594C124.04 7.20573 124.397 6.91146 124.814 6.70312C125.235 6.49479 125.709 6.39062 126.235 6.39062C126.793 6.39062 127.262 6.49219 127.642 6.69531C128.027 6.89844 128.345 7.1875 128.595 7.5625C128.85 7.9375 129.048 8.38281 129.189 8.89844C129.334 9.40885 129.446 9.97135 129.525 10.5859V11.0312C129.452 11.6302 129.334 12.1797 129.173 12.6797C129.017 13.1797 128.808 13.6172 128.548 13.9922C128.288 14.362 127.965 14.6484 127.579 14.8516C127.194 15.0547 126.741 15.1562 126.22 15.1562C125.699 15.1562 125.23 15.0495 124.814 14.8359C124.397 14.6224 124.04 14.3229 123.743 13.9375C123.452 13.5521 123.228 13.099 123.071 12.5781C122.915 12.0573 122.837 11.4896 122.837 10.875ZM124.9 10.7109V10.875C124.9 11.2396 124.936 11.5807 125.009 11.8984C125.082 12.2161 125.194 12.4974 125.345 12.7422C125.496 12.9818 125.686 13.1693 125.915 13.3047C126.144 13.4401 126.418 13.5078 126.735 13.5078C127.163 13.5078 127.512 13.4193 127.782 13.2422C128.058 13.0599 128.267 12.8125 128.407 12.5C128.553 12.1823 128.647 11.8255 128.689 11.4297V10.2031C128.663 9.89062 128.605 9.60156 128.517 9.33594C128.433 9.07031 128.316 8.84115 128.165 8.64844C128.014 8.45573 127.821 8.30469 127.587 8.19531C127.353 8.08594 127.074 8.03125 126.751 8.03125C126.439 8.03125 126.165 8.10156 125.931 8.24219C125.696 8.3776 125.504 8.56771 125.353 8.8125C125.202 9.05729 125.087 9.34115 125.009 9.66406C124.936 9.98698 124.9 10.3359 124.9 10.7109ZM134.345 8.27344V15H132.282V6.54688H134.235L134.345 8.27344ZM136.915 6.49219L136.884 8.41406C136.769 8.39323 136.639 8.3776 136.493 8.36719C136.353 8.35677 136.22 8.35156 136.095 8.35156C135.777 8.35156 135.498 8.39583 135.259 8.48438C135.019 8.56771 134.819 8.6901 134.657 8.85156C134.501 9.01302 134.381 9.21094 134.298 9.44531C134.215 9.67448 134.168 9.9349 134.157 10.2266L133.712 10.1719C133.712 9.63542 133.767 9.13802 133.876 8.67969C133.985 8.22135 134.144 7.82031 134.353 7.47656C134.561 7.13281 134.821 6.86719 135.134 6.67969C135.452 6.48698 135.816 6.39062 136.228 6.39062C136.342 6.39062 136.465 6.40104 136.595 6.42188C136.73 6.4375 136.837 6.46094 136.915 6.49219ZM142.439 13.2031V9.30469C142.439 9.01823 142.389 8.77083 142.29 8.5625C142.191 8.35417 142.04 8.19271 141.837 8.07812C141.634 7.96354 141.376 7.90625 141.064 7.90625C140.788 7.90625 140.545 7.95312 140.337 8.04688C140.134 8.14062 139.978 8.27344 139.868 8.44531C139.759 8.61198 139.704 8.80469 139.704 9.02344H137.634C137.634 8.67448 137.717 8.34375 137.884 8.03125C138.051 7.71354 138.288 7.43229 138.595 7.1875C138.907 6.9375 139.28 6.74219 139.712 6.60156C140.15 6.46094 140.639 6.39062 141.181 6.39062C141.821 6.39062 142.392 6.5 142.892 6.71875C143.397 6.93229 143.793 7.25521 144.079 7.6875C144.371 8.11979 144.517 8.66406 144.517 9.32031V13.0078C144.517 13.4297 144.543 13.7917 144.595 14.0938C144.652 14.3906 144.735 14.6484 144.845 14.8672V15H142.743C142.644 14.7865 142.569 14.5156 142.517 14.1875C142.465 13.8542 142.439 13.526 142.439 13.2031ZM142.728 9.85156L142.743 11.0781H141.439C141.116 11.0781 140.832 11.112 140.587 11.1797C140.342 11.2422 140.142 11.3359 139.985 11.4609C139.829 11.5807 139.712 11.7266 139.634 11.8984C139.556 12.0651 139.517 12.2552 139.517 12.4688C139.517 12.6771 139.564 12.8646 139.657 13.0312C139.756 13.1979 139.897 13.3307 140.079 13.4297C140.267 13.5234 140.485 13.5703 140.735 13.5703C141.1 13.5703 141.418 13.4974 141.689 13.3516C141.959 13.2005 142.17 13.0182 142.321 12.8047C142.472 12.5911 142.553 12.388 142.564 12.1953L143.157 13.0859C143.084 13.2995 142.975 13.526 142.829 13.7656C142.683 14.0052 142.496 14.2292 142.267 14.4375C142.038 14.6458 141.762 14.8177 141.439 14.9531C141.116 15.0885 140.741 15.1562 140.314 15.1562C139.767 15.1562 139.277 15.0469 138.845 14.8281C138.413 14.6094 138.071 14.3099 137.821 13.9297C137.571 13.5495 137.446 13.1172 137.446 12.6328C137.446 12.1849 137.53 11.7891 137.696 11.4453C137.863 11.1016 138.11 10.8125 138.439 10.5781C138.767 10.3385 139.173 10.1589 139.657 10.0391C140.147 9.91406 140.707 9.85156 141.337 9.85156H142.728ZM148.431 8.28125V15H146.368V6.54688H148.314L148.431 8.28125ZM148.126 10.4688H147.493C147.493 9.88021 147.564 9.33854 147.704 8.84375C147.85 8.34896 148.064 7.91927 148.345 7.55469C148.626 7.1849 148.972 6.89844 149.384 6.69531C149.801 6.49219 150.282 6.39062 150.829 6.39062C151.209 6.39062 151.558 6.44792 151.876 6.5625C152.194 6.67188 152.467 6.84635 152.696 7.08594C152.931 7.32031 153.11 7.6276 153.235 8.00781C153.36 8.38281 153.423 8.83333 153.423 9.35938V15H151.36V9.57031C151.36 9.17448 151.303 8.86458 151.189 8.64062C151.079 8.41667 150.92 8.26042 150.712 8.17188C150.504 8.07812 150.254 8.03125 149.962 8.03125C149.639 8.03125 149.36 8.09635 149.126 8.22656C148.897 8.35156 148.707 8.52604 148.556 8.75C148.41 8.97396 148.301 9.23177 148.228 9.52344C148.16 9.8151 148.126 10.1302 148.126 10.4688ZM153.267 10.0859L152.415 10.2422C152.42 9.71094 152.493 9.21354 152.634 8.75C152.775 8.28125 152.98 7.8724 153.251 7.52344C153.527 7.16927 153.868 6.89323 154.275 6.69531C154.686 6.49219 155.16 6.39062 155.696 6.39062C156.113 6.39062 156.488 6.45052 156.821 6.57031C157.16 6.6849 157.449 6.86979 157.689 7.125C157.928 7.375 158.11 7.70052 158.235 8.10156C158.366 8.5026 158.431 8.99219 158.431 9.57031V15H156.353V9.5625C156.353 9.15104 156.295 8.83594 156.181 8.61719C156.071 8.39844 155.913 8.2474 155.704 8.16406C155.496 8.07552 155.251 8.03125 154.97 8.03125C154.683 8.03125 154.433 8.08594 154.22 8.19531C154.012 8.29948 153.834 8.44531 153.689 8.63281C153.548 8.82031 153.441 9.03906 153.368 9.28906C153.301 9.53385 153.267 9.79948 153.267 10.0859ZM49.1417 22.625H51.0011L54.1105 31.1875L57.212 22.625H59.0792L54.8527 34H53.3605L49.1417 22.625ZM48.2042 22.625H50.0245L50.3527 30.4922V34H48.2042V22.625ZM58.1886 22.625H60.0167V34H57.8683V30.4922L58.1886 22.625ZM66.7042 32.2031V28.3047C66.7042 28.0182 66.6547 27.7708 66.5558 27.5625C66.4568 27.3542 66.3058 27.1927 66.1027 27.0781C65.8995 26.9635 65.6417 26.9062 65.3292 26.9062C65.0532 26.9062 64.811 26.9531 64.6027 27.0469C64.3995 27.1406 64.2433 27.2734 64.1339 27.4453C64.0245 27.612 63.9698 27.8047 63.9698 28.0234H61.8995C61.8995 27.6745 61.9829 27.3438 62.1495 27.0312C62.3162 26.7135 62.5532 26.4323 62.8605 26.1875C63.173 25.9375 63.5454 25.7422 63.9777 25.6016C64.4152 25.4609 64.9047 25.3906 65.4464 25.3906C66.087 25.3906 66.6573 25.5 67.1573 25.7188C67.6626 25.9323 68.0584 26.2552 68.3448 26.6875C68.6365 27.1198 68.7823 27.6641 68.7823 28.3203V32.0078C68.7823 32.4297 68.8084 32.7917 68.8605 33.0938C68.9178 33.3906 69.0011 33.6484 69.1105 33.8672V34H67.0089C66.91 33.7865 66.8344 33.5156 66.7823 33.1875C66.7303 32.8542 66.7042 32.526 66.7042 32.2031ZM66.9933 28.8516L67.0089 30.0781H65.7042C65.3813 30.0781 65.0975 30.112 64.8527 30.1797C64.6079 30.2422 64.4073 30.3359 64.2511 30.4609C64.0948 30.5807 63.9777 30.7266 63.8995 30.8984C63.8214 31.0651 63.7823 31.2552 63.7823 31.4688C63.7823 31.6771 63.8292 31.8646 63.923 32.0312C64.0219 32.1979 64.1626 32.3307 64.3448 32.4297C64.5323 32.5234 64.7511 32.5703 65.0011 32.5703C65.3657 32.5703 65.6834 32.4974 65.9542 32.3516C66.2251 32.2005 66.436 32.0182 66.587 31.8047C66.7381 31.5911 66.8188 31.388 66.8292 31.1953L67.423 32.0859C67.3501 32.2995 67.2407 32.526 67.0948 32.7656C66.949 33.0052 66.7615 33.2292 66.5323 33.4375C66.3032 33.6458 66.0271 33.8177 65.7042 33.9531C65.3813 34.0885 65.0063 34.1562 64.5792 34.1562C64.0323 34.1562 63.5428 34.0469 63.1105 33.8281C62.6782 33.6094 62.337 33.3099 62.087 32.9297C61.837 32.5495 61.712 32.1172 61.712 31.6328C61.712 31.1849 61.7954 30.7891 61.962 30.4453C62.1287 30.1016 62.3761 29.8125 62.7042 29.5781C63.0323 29.3385 63.4386 29.1589 63.923 29.0391C64.4126 28.9141 64.9725 28.8516 65.6027 28.8516H66.9933ZM72.6652 27.3516V34H70.6027V25.5469H72.5402L72.6652 27.3516ZM72.337 29.4688H71.7277C71.7329 28.8542 71.8162 28.2969 71.9777 27.7969C72.1391 27.2969 72.3657 26.8672 72.6573 26.5078C72.9542 26.1484 73.3058 25.8724 73.712 25.6797C74.1183 25.487 74.5714 25.3906 75.0714 25.3906C75.4777 25.3906 75.8448 25.4479 76.173 25.5625C76.5011 25.6771 76.7823 25.8594 77.0167 26.1094C77.2563 26.3594 77.4386 26.6875 77.5636 27.0938C77.6938 27.4948 77.7589 27.9896 77.7589 28.5781V34H75.6808V28.5625C75.6808 28.1771 75.6235 27.8724 75.5089 27.6484C75.3995 27.4245 75.2381 27.2656 75.0245 27.1719C74.8162 27.0781 74.5584 27.0312 74.2511 27.0312C73.9334 27.0312 73.6547 27.0964 73.4152 27.2266C73.1808 27.3516 72.9829 27.526 72.8214 27.75C72.6652 27.974 72.5454 28.2318 72.462 28.5234C72.3787 28.8151 72.337 29.1302 72.337 29.4688ZM84.2355 32.2031V28.3047C84.2355 28.0182 84.186 27.7708 84.087 27.5625C83.9881 27.3542 83.837 27.1927 83.6339 27.0781C83.4308 26.9635 83.173 26.9062 82.8605 26.9062C82.5844 26.9062 82.3422 26.9531 82.1339 27.0469C81.9308 27.1406 81.7745 27.2734 81.6652 27.4453C81.5558 27.612 81.5011 27.8047 81.5011 28.0234H79.4308C79.4308 27.6745 79.5141 27.3438 79.6808 27.0312C79.8475 26.7135 80.0844 26.4323 80.3917 26.1875C80.7042 25.9375 81.0766 25.7422 81.5089 25.6016C81.9464 25.4609 82.436 25.3906 82.9777 25.3906C83.6183 25.3906 84.1886 25.5 84.6886 25.7188C85.1938 25.9323 85.5896 26.2552 85.8761 26.6875C86.1678 27.1198 86.3136 27.6641 86.3136 28.3203V32.0078C86.3136 32.4297 86.3396 32.7917 86.3917 33.0938C86.449 33.3906 86.5323 33.6484 86.6417 33.8672V34H84.5402C84.4412 33.7865 84.3657 33.5156 84.3136 33.1875C84.2615 32.8542 84.2355 32.526 84.2355 32.2031ZM84.5245 28.8516L84.5402 30.0781H83.2355C82.9126 30.0781 82.6287 30.112 82.3839 30.1797C82.1391 30.2422 81.9386 30.3359 81.7823 30.4609C81.6261 30.5807 81.5089 30.7266 81.4308 30.8984C81.3527 31.0651 81.3136 31.2552 81.3136 31.4688C81.3136 31.6771 81.3605 31.8646 81.4542 32.0312C81.5532 32.1979 81.6938 32.3307 81.8761 32.4297C82.0636 32.5234 82.2823 32.5703 82.5323 32.5703C82.8969 32.5703 83.2146 32.4974 83.4855 32.3516C83.7563 32.2005 83.9672 32.0182 84.1183 31.8047C84.2693 31.5911 84.3501 31.388 84.3605 31.1953L84.9542 32.0859C84.8813 32.2995 84.7719 32.526 84.6261 32.7656C84.4803 33.0052 84.2928 33.2292 84.0636 33.4375C83.8344 33.6458 83.5584 33.8177 83.2355 33.9531C82.9126 34.0885 82.5376 34.1562 82.1105 34.1562C81.5636 34.1562 81.074 34.0469 80.6417 33.8281C80.2094 33.6094 79.8683 33.3099 79.6183 32.9297C79.3683 32.5495 79.2433 32.1172 79.2433 31.6328C79.2433 31.1849 79.3266 30.7891 79.4933 30.4453C79.66 30.1016 79.9073 29.8125 80.2355 29.5781C80.5636 29.3385 80.9698 29.1589 81.4542 29.0391C81.9438 28.9141 82.5037 28.8516 83.1339 28.8516H84.5245ZM93.548 25.5469H95.423V33.7422C95.423 34.5078 95.2563 35.1562 94.923 35.6875C94.5948 36.224 94.1339 36.6302 93.5402 36.9062C92.9464 37.1875 92.2563 37.3281 91.4698 37.3281C91.1313 37.3281 90.7641 37.2812 90.3683 37.1875C89.9777 37.0938 89.6001 36.9453 89.2355 36.7422C88.8761 36.5443 88.5766 36.2865 88.337 35.9688L89.2667 34.75C89.548 35.0781 89.8657 35.3255 90.2198 35.4922C90.574 35.6641 90.9568 35.75 91.3683 35.75C91.785 35.75 92.1391 35.6719 92.4308 35.5156C92.7277 35.3646 92.9542 35.1406 93.1105 34.8438C93.2719 34.5521 93.3527 34.1927 93.3527 33.7656V27.4766L93.548 25.5469ZM87.837 29.875V29.7109C87.837 29.0651 87.9152 28.4792 88.0714 27.9531C88.2277 27.4219 88.4516 26.9661 88.7433 26.5859C89.0402 26.2057 89.3969 25.9115 89.8136 25.7031C90.2355 25.4948 90.7094 25.3906 91.2355 25.3906C91.7928 25.3906 92.2615 25.4922 92.6417 25.6953C93.0271 25.8984 93.3448 26.1875 93.5948 26.5625C93.8501 26.9375 94.048 27.3828 94.1886 27.8984C94.3344 28.4089 94.4464 28.9714 94.5245 29.5859V30.0312C94.4516 30.6302 94.3344 31.1797 94.173 31.6797C94.0167 32.1797 93.8084 32.6172 93.548 32.9922C93.2876 33.362 92.9646 33.6484 92.5792 33.8516C92.1938 34.0547 91.7407 34.1562 91.2198 34.1562C90.699 34.1562 90.2303 34.0495 89.8136 33.8359C89.3969 33.6224 89.0402 33.3229 88.7433 32.9375C88.4516 32.5521 88.2277 32.099 88.0714 31.5781C87.9152 31.0573 87.837 30.4896 87.837 29.875ZM89.8995 29.7109V29.875C89.8995 30.2396 89.936 30.5807 90.0089 30.8984C90.0818 31.2161 90.1938 31.4974 90.3448 31.7422C90.4959 31.9818 90.686 32.1693 90.9152 32.3047C91.1443 32.4401 91.4178 32.5078 91.7355 32.5078C92.1626 32.5078 92.5115 32.4193 92.7823 32.2422C93.0584 32.0599 93.2667 31.8125 93.4073 31.5C93.5532 31.1823 93.6469 30.8255 93.6886 30.4297V29.2031C93.6626 28.8906 93.6053 28.6016 93.5167 28.3359C93.4334 28.0703 93.3162 27.8411 93.1652 27.6484C93.0141 27.4557 92.8214 27.3047 92.587 27.1953C92.3527 27.0859 92.074 27.0312 91.7511 27.0312C91.4386 27.0312 91.1652 27.1016 90.9308 27.2422C90.6964 27.3776 90.5037 27.5677 90.3527 27.8125C90.2016 28.0573 90.087 28.3411 90.0089 28.6641C89.936 28.987 89.8995 29.3359 89.8995 29.7109ZM101.079 34.1562C100.439 34.1562 99.8631 34.0521 99.3527 33.8438C98.8422 33.6354 98.4073 33.3464 98.048 32.9766C97.6938 32.6016 97.4204 32.1667 97.2277 31.6719C97.0402 31.1719 96.9464 30.6354 96.9464 30.0625V29.75C96.9464 29.099 97.0402 28.5078 97.2277 27.9766C97.4152 27.4401 97.6808 26.9792 98.0245 26.5938C98.3683 26.2083 98.7797 25.9115 99.2589 25.7031C99.7381 25.4948 100.267 25.3906 100.845 25.3906C101.444 25.3906 101.972 25.4922 102.431 25.6953C102.889 25.8932 103.272 26.1745 103.579 26.5391C103.887 26.9036 104.118 27.3411 104.275 27.8516C104.431 28.3568 104.509 28.9167 104.509 29.5312V30.3984H97.8839V28.9766H102.478V28.8203C102.467 28.4922 102.405 28.1927 102.29 27.9219C102.176 27.6458 101.998 27.4271 101.759 27.2656C101.519 27.099 101.209 27.0156 100.829 27.0156C100.522 27.0156 100.254 27.0833 100.025 27.2188C99.8006 27.349 99.6131 27.5365 99.462 27.7812C99.3162 28.0208 99.2068 28.3073 99.1339 28.6406C99.061 28.974 99.0245 29.3438 99.0245 29.75V30.0625C99.0245 30.4167 99.0714 30.7448 99.1652 31.0469C99.2641 31.349 99.4073 31.612 99.5948 31.8359C99.7876 32.0547 100.017 32.2266 100.282 32.3516C100.553 32.4714 100.86 32.5312 101.204 32.5312C101.637 32.5312 102.027 32.4479 102.376 32.2812C102.73 32.1094 103.038 31.8568 103.298 31.5234L104.337 32.6016C104.16 32.862 103.92 33.112 103.618 33.3516C103.321 33.5911 102.962 33.7865 102.54 33.9375C102.118 34.0833 101.631 34.1562 101.079 34.1562ZM107.946 27.2812V34H105.884V25.5469H107.829L107.946 27.2812ZM107.642 29.4688H107.009C107.009 28.8802 107.079 28.3385 107.22 27.8438C107.366 27.349 107.579 26.9193 107.86 26.5547C108.142 26.1849 108.488 25.8984 108.9 25.6953C109.316 25.4922 109.798 25.3906 110.345 25.3906C110.725 25.3906 111.074 25.4479 111.392 25.5625C111.709 25.6719 111.983 25.8464 112.212 26.0859C112.446 26.3203 112.626 26.6276 112.751 27.0078C112.876 27.3828 112.939 27.8333 112.939 28.3594V34H110.876V28.5703C110.876 28.1745 110.819 27.8646 110.704 27.6406C110.595 27.4167 110.436 27.2604 110.228 27.1719C110.019 27.0781 109.769 27.0312 109.478 27.0312C109.155 27.0312 108.876 27.0964 108.642 27.2266C108.413 27.3516 108.222 27.526 108.071 27.75C107.926 27.974 107.816 28.2318 107.743 28.5234C107.676 28.8151 107.642 29.1302 107.642 29.4688ZM112.782 29.0859L111.931 29.2422C111.936 28.7109 112.009 28.2135 112.15 27.75C112.29 27.2812 112.496 26.8724 112.767 26.5234C113.043 26.1693 113.384 25.8932 113.79 25.6953C114.202 25.4922 114.676 25.3906 115.212 25.3906C115.629 25.3906 116.004 25.4505 116.337 25.5703C116.676 25.6849 116.965 25.8698 117.204 26.125C117.444 26.375 117.626 26.7005 117.751 27.1016C117.881 27.5026 117.946 27.9922 117.946 28.5703V34H115.868V28.5625C115.868 28.151 115.811 27.8359 115.696 27.6172C115.587 27.3984 115.428 27.2474 115.22 27.1641C115.012 27.0755 114.767 27.0312 114.485 27.0312C114.199 27.0312 113.949 27.0859 113.735 27.1953C113.527 27.2995 113.35 27.4453 113.204 27.6328C113.064 27.8203 112.957 28.0391 112.884 28.2891C112.816 28.5339 112.782 28.7995 112.782 29.0859ZM123.595 34.1562C122.954 34.1562 122.379 34.0521 121.868 33.8438C121.358 33.6354 120.923 33.3464 120.564 32.9766C120.209 32.6016 119.936 32.1667 119.743 31.6719C119.556 31.1719 119.462 30.6354 119.462 30.0625V29.75C119.462 29.099 119.556 28.5078 119.743 27.9766C119.931 27.4401 120.196 26.9792 120.54 26.5938C120.884 26.2083 121.295 25.9115 121.775 25.7031C122.254 25.4948 122.782 25.3906 123.36 25.3906C123.959 25.3906 124.488 25.4922 124.946 25.6953C125.405 25.8932 125.788 26.1745 126.095 26.5391C126.402 26.9036 126.634 27.3411 126.79 27.8516C126.946 28.3568 127.025 28.9167 127.025 29.5312V30.3984H120.4V28.9766H124.993V28.8203C124.983 28.4922 124.92 28.1927 124.806 27.9219C124.691 27.6458 124.514 27.4271 124.275 27.2656C124.035 27.099 123.725 27.0156 123.345 27.0156C123.038 27.0156 122.769 27.0833 122.54 27.2188C122.316 27.349 122.129 27.5365 121.978 27.7812C121.832 28.0208 121.722 28.3073 121.65 28.6406C121.577 28.974 121.54 29.3438 121.54 29.75V30.0625C121.54 30.4167 121.587 30.7448 121.681 31.0469C121.78 31.349 121.923 31.612 122.11 31.8359C122.303 32.0547 122.532 32.2266 122.798 32.3516C123.069 32.4714 123.376 32.5312 123.72 32.5312C124.152 32.5312 124.543 32.4479 124.892 32.2812C125.246 32.1094 125.553 31.8568 125.814 31.5234L126.853 32.6016C126.676 32.862 126.436 33.112 126.134 33.3516C125.837 33.5911 125.478 33.7865 125.056 33.9375C124.634 34.0833 124.147 34.1562 123.595 34.1562ZM130.431 27.3516V34H128.368V25.5469H130.306L130.431 27.3516ZM130.103 29.4688H129.493C129.498 28.8542 129.582 28.2969 129.743 27.7969C129.905 27.2969 130.131 26.8672 130.423 26.5078C130.72 26.1484 131.071 25.8724 131.478 25.6797C131.884 25.487 132.337 25.3906 132.837 25.3906C133.243 25.3906 133.61 25.4479 133.939 25.5625C134.267 25.6771 134.548 25.8594 134.782 26.1094C135.022 26.3594 135.204 26.6875 135.329 27.0938C135.459 27.4948 135.525 27.9896 135.525 28.5781V34H133.446V28.5625C133.446 28.1771 133.389 27.8724 133.275 27.6484C133.165 27.4245 133.004 27.2656 132.79 27.1719C132.582 27.0781 132.324 27.0312 132.017 27.0312C131.699 27.0312 131.42 27.0964 131.181 27.2266C130.946 27.3516 130.748 27.526 130.587 27.75C130.431 27.974 130.311 28.2318 130.228 28.5234C130.144 28.8151 130.103 29.1302 130.103 29.4688ZM141.345 25.5469V27.0312H136.501V25.5469H141.345ZM137.798 23.4688H139.868V31.5625C139.868 31.8125 139.902 32.0052 139.97 32.1406C140.038 32.276 140.139 32.3672 140.275 32.4141C140.41 32.4609 140.571 32.4844 140.759 32.4844C140.894 32.4844 141.019 32.4766 141.134 32.4609C141.248 32.4453 141.345 32.4297 141.423 32.4141L141.431 33.9609C141.259 34.0182 141.064 34.0651 140.845 34.1016C140.631 34.138 140.389 34.1562 140.118 34.1562C139.655 34.1562 139.248 34.0781 138.9 33.9219C138.551 33.7604 138.28 33.5026 138.087 33.1484C137.894 32.7891 137.798 32.3151 137.798 31.7266V23.4688Z" fill="#4A4A4A"/>
<path fill-rule="evenodd" clip-rule="evenodd" d="M10.7075 27C4.61444 25.915 0 20.7784 0 14.6056C0 7.64371 5.86946 2 13.1098 2C19.5296 2 24.8716 6.43696 26 12.2956C25.2212 12.157 24.4182 12.0845 23.5977 12.0845C16.3573 12.0845 10.4878 17.7282 10.4878 24.6901C10.4878 25.4791 10.5632 26.2511 10.7075 27Z" fill="#2176FF"/>
<path fill-rule="evenodd" clip-rule="evenodd" d="M13.3099 27.9155C20.2718 27.9155 25.9155 22.2718 25.9155 15.3099C25.9155 14.5209 25.843 13.7489 25.7044 13C31.563 14.085 36 19.2216 36 25.3944C36 32.3563 30.3563 38 23.3944 38C17.2216 38 12.085 33.563 11 27.7044C11.7489 27.843 12.5209 27.9155 13.3099 27.9155Z" fill="#06D6A0"/>
</svg>
