<svg width="259" height="430" viewBox="0 0 259 430" fill="none" xmlns="http://www.w3.org/2000/svg">
<path fill-rule="evenodd" clip-rule="evenodd" d="M127.873 53.6992C123.067 48.0584 119.814 41.1456 120.358 33.3996C121.924 11.0811 152.992 15.9909 159.035 27.2553C165.079 38.5198 164.361 67.093 156.55 69.1062C153.435 69.9091 146.8 67.9424 140.046 63.8718L144.285 93.861H119.256L127.873 53.6992Z" fill="#B28B67"/>
<path fill-rule="evenodd" clip-rule="evenodd" d="M170.124 11.6395C169.606 9.81764 168.212 8.25774 166.333 7.79496C165.877 7.68271 165.407 7.63737 164.938 7.65627C164.77 7.66298 164.723 7.71147 164.644 7.59388C164.586 7.50669 164.584 7.29369 164.56 7.19123C164.486 6.87262 164.392 6.55798 164.277 6.25149C163.884 5.20615 163.223 4.281 162.427 3.50166C160.937 2.04367 158.925 1.03743 156.833 0.855385C155.689 0.755802 154.553 0.94175 153.471 1.31406C152.911 1.50678 152.367 1.74677 151.838 2.0121C151.679 2.09195 151.162 2.48309 151.002 2.45775C150.826 2.42981 150.471 1.99107 150.328 1.88094C148.553 0.519584 146.362 -0.0156577 144.152 0.0003477C141.657 0.0191347 139.255 0.143785 137.175 1.66451C136.734 1.98648 136.315 2.33899 135.915 2.71013C135.705 2.90553 135.501 3.10826 135.307 3.31941C135.19 3.4468 135.076 3.57707 134.966 3.71083C134.779 3.93787 134.809 4.01245 134.548 3.85404C133.547 3.24572 132.387 2.96122 131.218 3.10484C130.524 3.19017 129.849 3.39852 129.208 3.67275C128.99 3.7661 128.484 4.13847 128.252 4.1421C128.021 4.14566 127.523 3.80048 127.285 3.71274C126.001 3.23873 124.617 3.12189 123.267 3.34092C121.875 3.56693 120.508 4.12238 119.328 4.88993C118.761 5.25916 118.266 5.66824 117.868 6.21725C117.696 6.45429 117.541 6.70503 117.347 6.92481C117.233 7.0535 117.007 7.18554 116.946 7.34841C116.983 7.25088 115.423 6.64982 115.276 6.6114C114.493 6.40669 113.694 6.44819 112.927 6.70078C111.484 7.17575 110.242 8.24089 109.222 9.33295C108.698 9.89387 108.24 10.5139 107.851 11.1745C107.664 11.4909 107.494 11.8164 107.337 12.1487C107.262 12.3098 107.212 12.5112 107.112 12.6562C106.984 12.8431 106.897 12.8467 106.665 12.9282C105.484 13.342 104.407 14.0425 103.587 14.9889C102.757 15.9464 102.219 17.1256 101.994 18.3674C101.98 18.4405 101.972 18.7437 101.93 18.7833C101.871 18.8378 101.633 18.8137 101.544 18.8242C101.232 18.8607 100.923 18.915 100.619 18.9872C100.057 19.1202 99.5096 19.316 98.9922 19.572C96.9752 20.5699 95.5328 22.4408 94.8269 24.5461C94.0862 26.7554 94.0993 29.2865 94.9846 31.4546C95.1276 31.8048 95.2978 32.1447 95.4976 32.4663C95.6204 32.6636 95.66 32.6641 95.5803 32.8712C95.4915 33.1016 95.3292 33.3255 95.2237 33.5506C94.8796 34.2853 94.6391 35.0645 94.4871 35.8604C94.2379 37.1658 94.1143 38.5377 94.3602 39.8531C94.4744 40.4639 94.6734 41.061 94.9769 41.605C95.1317 41.8824 95.3128 42.1455 95.5172 42.3888C95.6234 42.5152 95.7361 42.6358 95.854 42.7514C95.9215 42.8175 96.0099 42.8753 96.0672 42.949C96.2072 43.1289 96.2366 42.981 96.1644 43.2451C96.0635 43.6143 95.8347 43.9786 95.6946 44.3379C95.5502 44.7082 95.4197 45.0835 95.3004 45.4625C95.0587 46.23 94.8543 47.0114 94.7265 47.8062C94.481 49.3322 94.5241 50.9582 95.2459 52.3587C95.5546 52.9578 95.9973 53.4833 96.5343 53.8921C96.7972 54.0921 97.0819 54.2645 97.3805 54.4061C97.534 54.4789 97.7299 54.5102 97.7999 54.6586C97.8752 54.8182 97.7634 55.1351 97.7379 55.3135C97.5159 56.8656 97.4046 58.4952 97.866 60.0162C98.291 61.4172 99.2266 62.6541 100.441 63.473C102.798 65.0616 105.974 64.972 108.451 63.7002C109.096 63.3687 109.7 62.9571 110.238 62.4715C111.61 64.318 114.433 64.2596 116.437 63.7335C118.935 63.078 120.939 61.3413 122.094 59.0596C123.672 60.9816 126.986 60.358 128.081 58.2729C128.349 57.7626 128.508 57.2002 128.586 56.631C128.627 56.3317 128.601 56.0298 128.632 55.7329C128.671 55.3546 128.924 54.9869 129.069 54.6209C129.352 53.9086 129.528 53.1729 129.535 52.4046C129.539 52.0034 129.489 51.6125 129.45 51.2146C129.416 50.8564 129.515 50.5226 129.572 50.1691C128.931 50.2745 128.151 50.1018 127.547 49.9161C126.955 49.7338 126.401 49.2538 125.983 48.8154C125.012 47.7974 124.419 46.4629 124.014 45.1347C123.124 42.2195 123.488 38.722 126.421 37.1221C127.786 36.3768 131.879 36.3792 133.505 36.7476C135.216 37.1349 137.155 40.9094 137.251 41.2641C137.31 41.4837 137.28 41.7555 137.482 41.9018C137.925 42.2235 138.656 41.6652 138.983 41.3897C139.547 40.9142 139.95 40.2815 140.298 39.6401C141.058 38.243 141.67 36.7446 142.103 35.2151C142.436 34.0358 142.649 32.8198 143.085 31.6706C143.519 30.5271 144.203 29.5051 145.265 28.8573C146.422 28.1526 147.747 27.7815 149.017 27.3386C150.275 26.8997 151.511 26.3633 152.487 25.4321C152.701 25.2273 152.91 25.0097 153.082 24.7686C153.218 24.5783 153.353 24.214 153.561 24.0933C153.884 23.9055 154.355 24.3937 154.634 24.571C156.011 25.4456 157.16 26.6654 158.086 27.9979C159.008 29.3232 159.764 30.5984 160.378 32.0782C160.834 33.1757 161.118 34.5813 161.92 35.4808C162.278 35.8824 164.938 36.1254 165.799 35.7748C166.661 35.4241 167.627 34.5137 167.916 33.9431C168.212 33.3591 168.283 32.7175 168.156 32.0782C168.082 31.7021 167.93 31.3507 167.847 30.9813C167.777 30.671 167.713 30.3776 167.562 30.0933C167.276 29.5546 166.787 29.1673 166.197 29.0054C166.811 28.4395 167.319 27.7625 167.671 27.0057C168.037 26.2194 168.347 25.2633 168.435 24.4003C168.506 23.6994 168.396 22.9732 168.012 22.3708C167.61 21.739 166.897 21.3267 166.28 20.9326C167.222 20.1952 168.029 19.2985 168.692 18.3057C169.981 16.375 170.779 13.9413 170.124 11.6395Z" fill="#191847"/>
<path fill-rule="evenodd" clip-rule="evenodd" d="M110.991 180.163L161.135 312.848L196.283 410.643H216.324L168.01 180.163L110.991 180.163Z" fill="#1F28CF"/>
<path fill-rule="evenodd" clip-rule="evenodd" d="M98.5984 180.163C98.0533 225.69 98.4474 286.984 97.1774 289.822C96.3307 291.714 69.9962 313.271 18.1738 354.491L28.5037 372.056C90.0288 332.38 122.364 309.899 125.51 304.613C130.228 296.684 153.932 223.718 166.265 180.163H98.5984Z" fill="#2B44FF"/>
<path fill-rule="evenodd" clip-rule="evenodd" d="M0.000354263 366.311L17.4477 353.033L31.5253 369.81C32.6081 382.457 36.7957 396.642 44.088 412.363L40.8923 415.044L15.4186 384.686L8.30176 372.96L6.70396 374.3L0.000354263 366.311Z" fill="#191847"/>
<path fill-rule="evenodd" clip-rule="evenodd" d="M194.423 429.415L195.466 407.515H217.367C227.751 414.815 241.309 420.725 258.039 425.244V429.415H218.409L204.852 427.33V429.415H194.423Z" fill="#191847"/>
<path fill-rule="evenodd" clip-rule="evenodd" d="M199.388 166.971L232.655 191.399C241.678 193.834 249.216 196.863 255.269 200.487C256.699 201.79 258.427 204.428 252.497 203.972C246.567 203.516 240.308 203.303 239.49 205.326C238.672 207.349 242.26 209.768 240.606 212.497C239.504 214.317 234.294 209.754 224.977 198.81L192.035 185.15L199.388 166.971ZM71.6616 167.814L93.4554 167.9C79.9987 211.34 72.7341 234.39 71.6616 237.048C69.2484 243.028 74.3551 252.136 76.5389 257.031C69.4263 260.214 70.1841 248.427 61.2118 252.601C53.0222 256.411 46.7925 263.315 37.3306 257.477C36.1674 256.759 34.8926 254.056 37.9726 251.944C45.646 246.683 56.7037 237.474 58.1978 234.443C60.2353 230.31 64.7232 208.1 71.6616 167.814Z" fill="#B28B67"/>
<path fill-rule="evenodd" clip-rule="evenodd" d="M133.596 76.3649L142.614 74.8181C176.074 103.722 189.817 159.251 230.83 188.667L220.958 200.903C149.808 192.093 132.173 124.362 133.596 76.3649Z" fill="#E87613"/>
<path fill-rule="evenodd" clip-rule="evenodd" d="M94.2842 189.694C130.443 189.694 157.041 189.694 174.078 189.694C177.724 189.694 177.037 184.429 176.51 181.773C170.427 151.111 146.681 118.059 146.681 74.4133L123.664 70.8042C104.627 101.422 98.0436 139.119 94.2842 189.694Z" fill="#DDE3E9"/>
<path fill-rule="evenodd" clip-rule="evenodd" d="M94.9252 100.9C91.5823 99.9391 88.9352 97.698 86.9837 94.1767C78.5712 78.9972 81.6093 70.6398 90.5996 67.8927C99.5898 65.1455 107.607 70.8042 121.931 70.8042C122.71 70.8042 123.424 70.853 124.072 70.9507L131.277 71.3618C151.95 141.424 157.651 188.168 148.381 211.595H85.5777C81.8566 220.272 78.2959 227.572 74.8955 233.496H57.7826C56.172 181.421 68.5529 137.222 94.9252 100.9Z" fill="#FF9B21"/>
<path fill-rule="evenodd" clip-rule="evenodd" d="M99.2541 175.613C101.229 192.139 104.44 204.133 108.885 211.595H85.5781C89.9186 201.474 94.4773 189.48 99.254 175.613H99.2541Z" fill="black" fill-opacity="0.1"/>
</svg>
