<svg width="240" height="319" viewBox="0 0 240 319" fill="none" xmlns="http://www.w3.org/2000/svg">
<path fill-rule="evenodd" clip-rule="evenodd" d="M125.904 39.9644C122.67 35.5815 120.639 30.3454 121.435 24.693C123.728 8.40686 146.259 13.6004 150.113 22.1707C153.967 30.741 151.975 51.6573 146.144 52.7331C143.819 53.1622 139.054 51.3797 134.31 48.0484L135.881 70.2573L117.526 68.9738L125.904 39.9644Z" fill="#915B3C"/>
<path fill-rule="evenodd" clip-rule="evenodd" d="M113.813 18.6854C113.262 18.0565 112.997 17.1953 112.773 16.3795C112.54 15.5321 112.316 14.6767 112.184 13.8023C111.919 12.0552 112.053 10.0768 113.374 8.8269C114.433 7.82462 115.943 7.44746 117.313 7.43835C118.226 7.43221 119.15 7.62458 120 7.97158C120.844 8.31582 121.549 8.93359 122.361 9.34325C122.523 7.49179 122.976 5.57438 124.027 4.05735C125.038 2.59774 126.541 1.84404 128.2 1.73285C129.903 1.61875 131.54 2.12986 132.993 3.0519C133.357 3.28281 133.716 3.52322 134.058 3.79073C134.344 4.01474 134.639 4.28107 134.985 4.38825C135.371 4.50786 135.581 4.29476 135.856 4.02624C136.179 3.71141 136.537 3.43925 136.912 3.20202C138.569 2.15329 140.672 1.82142 142.45 2.64387C143.269 3.02279 144.049 3.6236 144.568 4.41257C145.03 5.11586 145.319 6.2004 145.989 6.71471C146.274 6.93304 146.502 6.68613 146.787 6.51174C147.215 6.24971 147.627 5.95629 148.059 5.70251C148.666 5.34596 149.315 5.09282 149.998 4.98435C150.997 4.82553 152.353 4.97394 152.544 6.28212C152.616 6.77349 152.499 7.28546 152.431 7.77071C152.337 8.43704 152.241 9.10299 152.137 9.76753C152.057 10.2721 151.967 10.7585 151.836 11.2503C151.766 11.5125 151.572 11.9967 151.667 12.2708C151.786 12.6134 152.457 12.4702 152.737 12.5014C153.29 12.5631 153.84 12.6993 154.336 12.9722C154.721 13.1837 155.12 13.483 155.256 13.9503C155.339 14.2373 155.292 14.5228 155.223 14.8073C155.14 15.1487 155.194 15.3366 155.214 15.6883C155.984 15.3736 158.622 14.7391 158.854 16.0968C158.931 16.5488 158.65 17.0339 158.436 17.3956C158.06 18.0301 157.586 18.6008 157.104 19.143C156.1 20.2742 154.928 21.2285 153.683 22.0277C155.026 22.741 155.261 24.5842 153.985 25.5834C153.421 26.0245 152.701 26.0812 152.035 26.0038C151.791 25.9755 151.445 25.8568 151.249 25.8859C151.144 25.9016 151.027 25.9817 150.883 25.9815C149.935 25.9801 148.886 25.6783 147.978 25.4045C146.361 24.9165 144.859 24.0292 143.672 22.7545C143.367 22.4276 143.11 22.2336 142.671 22.2075C142.287 22.1845 141.902 22.2635 141.517 22.2464C140.499 22.2013 139.618 21.6404 138.697 21.2438C138.55 22.5145 138.089 23.8931 137.488 25.0034C136.997 25.9088 136.1 25.9827 135.221 26.0037C132.413 26.0711 129.633 25.5823 126.839 25.3908C129.501 26.1913 132.278 26.6386 134.908 27.5454C136.097 27.9553 135.114 28.7072 134.557 29.2371C133.638 30.1096 132.923 31.2203 132.398 32.4064C131.196 30.5893 128.937 29.2895 126.828 29.6744C124.498 30.0996 122.67 33.0825 123.978 35.4104C124.737 36.7618 126.237 37.3678 127.475 38.0122C126.407 38.9782 126.059 40.4911 125.369 41.7376C125.029 42.3524 124.564 43.0418 123.887 43.217C123.636 43.2819 123.349 43.2688 123.142 43.4548C122.886 43.685 122.809 43.9571 122.489 44.148C121.212 44.9099 119.313 44.7115 118.31 43.5305C117.403 42.4624 117.768 40.8981 118.655 39.9415C117.394 39.3095 115.077 38.448 115.735 36.4612C112.934 36.0776 106.422 31.0369 110.431 27.9666C108.441 26.6504 106.737 23.6549 108.245 21.2248C109.406 19.3535 111.85 18.6517 113.813 18.6854Z" fill="#191847"/>
<path fill-rule="evenodd" clip-rule="evenodd" d="M102.462 135.773L159.428 231.011L202.136 311.526H211.335L139.777 135.773L102.462 135.773Z" fill="#784931"/>
<path fill-rule="evenodd" clip-rule="evenodd" d="M196.512 307.809C195.654 310.098 195.226 311.811 195.226 312.948C195.226 314.33 195.456 316.348 195.917 319C197.52 319 211.934 319 239.156 319C240.28 315.285 239.631 313.28 237.21 312.984C234.79 312.687 232.778 312.42 231.177 312.181L211.08 303.222C210.693 303.049 210.24 303.223 210.067 303.61C210.064 303.616 210.061 303.623 210.059 303.63L208.767 306.763C206.526 307.809 204.705 308.332 203.303 308.332C202.165 308.332 200.593 307.872 198.587 306.953L198.587 306.953C197.817 306.6 196.907 306.938 196.554 307.708C196.539 307.741 196.525 307.774 196.512 307.809Z" fill="#E4E4E4"/>
<path fill-rule="evenodd" clip-rule="evenodd" d="M190.275 298.633L208.015 293.266C200.243 270.031 190.716 244.461 179.436 216.557C168.156 188.653 156.042 161.725 143.094 135.773H92.9893C107.385 168.602 122.647 198.43 138.774 225.259C154.902 252.089 172.069 276.546 190.275 298.633Z" fill="#5C63AB"/>
<path fill-rule="evenodd" clip-rule="evenodd" d="M98.7176 135.773C93.3411 169.24 82.9712 211.998 81.9926 213.318C81.3401 214.198 57.8527 222.068 11.5303 236.929L13.5174 245.041C68.7568 237.071 97.8632 230.887 100.837 226.49C105.297 219.895 127.568 167.791 136.194 135.773H98.7176Z" fill="#915B3C"/>
<path fill-rule="evenodd" clip-rule="evenodd" d="M27.8135 229.917L31.3135 242.982C72.6294 246.605 97.9445 243.987 107.259 235.127C116.573 226.266 127.189 193.149 139.106 135.773H91.3285C83.7782 182.756 79.5571 207.233 78.6651 209.206C77.7732 211.178 60.8227 218.082 27.8135 229.917Z" fill="#8991DC"/>
<path fill-rule="evenodd" clip-rule="evenodd" d="M13.7998 233.55C11.3961 233.102 9.63456 232.978 8.51515 233.175C7.15368 233.415 5.20696 233.992 2.67497 234.906C2.95346 236.486 5.4563 250.68 10.1835 277.489C14.0369 277.951 15.8993 276.964 15.7706 274.528C15.6419 272.093 15.5561 270.066 15.5131 268.447L20.8466 247.099C20.9492 246.689 20.6994 246.272 20.2887 246.17C20.2816 246.168 20.2746 246.166 20.2675 246.165L16.9571 245.437C15.5381 243.411 14.707 241.708 14.4637 240.329C14.266 239.207 14.4458 237.579 15.003 235.444L15.003 235.444C15.2169 234.625 14.726 233.787 13.9067 233.573C13.8713 233.564 13.8357 233.556 13.7998 233.55Z" fill="#E4E4E4"/>
<path fill-rule="evenodd" clip-rule="evenodd" d="M170.882 128.218L191.847 150.149C198.068 153.064 203.138 156.219 207.058 159.615C207.927 160.74 208.841 162.871 204.606 161.784C200.371 160.697 195.868 159.744 195.017 161.104C194.167 162.464 196.456 164.673 194.91 166.438C193.88 167.614 190.69 163.646 185.343 154.534L163.238 140.44L170.882 128.218ZM63.1978 101.636L76.0696 106.388C55.2378 134.29 44.1174 149.024 42.7082 150.59C39.5376 154.115 40.7752 161.69 41.053 165.621C35.3397 166.031 38.8266 158.079 31.5792 158.707C24.9642 159.28 18.9251 162.482 13.857 156.071C13.2339 155.282 13.0328 153.095 15.6914 152.41C22.3148 150.705 32.2685 147.124 34.0626 145.406C36.5093 143.063 46.221 128.473 63.1978 101.636Z" fill="#915B3C"/>
<path fill-rule="evenodd" clip-rule="evenodd" d="M176.154 131.13C179.292 131.454 182.572 132.562 185.971 134.416C187.643 135.329 188.259 137.425 187.347 139.097C186.816 140.068 185.887 140.683 184.874 140.85C185.476 141.476 186.085 142.101 186.701 142.723L178.439 154.055C155.12 136.8 132.785 122.952 125.546 99.9763C123.116 92.2651 128.591 68.4923 129.779 59.7022L138.437 57.8145C145.591 83.0656 156.888 108.073 176.154 131.13Z" fill="#69A1AC"/>
<path fill-rule="evenodd" clip-rule="evenodd" d="M87.1058 135.849C110.382 142.642 129.064 145.936 143.154 145.732C144.899 145.706 146.109 138.414 145.676 136.288C138.94 103.179 134.914 79.1013 138.706 57.5981C136.262 58.3724 132.316 57.857 126.866 56.0521C107.923 75.5609 96.5292 99.7681 87.1058 135.849Z" fill="#191847"/>
<path fill-rule="evenodd" clip-rule="evenodd" d="M82.0504 138.732C81.378 137.831 81.1583 136.62 81.5714 135.485L82.358 133.324C82.8911 131.859 84.3128 130.975 85.7926 131.058C86.2457 129.97 86.6626 128.884 87.04 127.799C90.2277 118.633 89.2547 108.923 90.9788 99.8602C77.0121 108.078 62.9675 124.043 48.8452 147.756L35.3257 141.045C36.2262 139.12 37.1418 137.223 38.0725 135.354C36.5915 134.129 35.424 129.504 36.9345 129.031C38.4946 128.543 40.1008 128.289 41.7497 128.263C61.7679 91.1885 88.2269 66.1585 121.127 53.1729L123.753 53.636L129.713 54.6869C121.29 87.6728 143.338 166.818 120.223 227.015C96.93 228.068 67.6821 206.855 34.3459 213.804C39.931 188.906 68.3434 163.509 82.0504 138.732L82.0504 138.732Z" fill="#89C5CC"/>
<path fill-rule="evenodd" clip-rule="evenodd" d="M124.112 54.4777L118.104 65.7692L124.365 76.1319L116.032 81.9384L128.004 114.327L112.199 81.3231L120.416 75.4356L114.853 66.2725L124.112 54.4777Z" fill="black" fill-opacity="0.1"/>
<path fill-rule="evenodd" clip-rule="evenodd" d="M120.977 124.765C119.309 124.471 118.195 122.881 118.489 121.213C118.784 119.545 120.374 118.431 122.042 118.725C123.71 119.02 124.823 120.61 124.529 122.278C124.235 123.946 122.645 125.06 120.977 124.765ZM121.69 142.796C120.022 142.502 118.908 140.911 119.203 139.243C119.497 137.576 121.087 136.462 122.755 136.756C124.423 137.05 125.537 138.641 125.242 140.308C124.948 141.976 123.358 143.09 121.69 142.796ZM119.383 160.294C117.715 160 116.602 158.409 116.896 156.741C117.19 155.073 118.78 153.96 120.448 154.254C122.116 154.548 123.23 156.138 122.936 157.806C122.641 159.474 121.051 160.588 119.383 160.294Z" fill="black" fill-opacity="0.4"/>
</svg>
